
CASCADE Topology V1, (c) Matra-Datavision
Locations 22
1
1.000000000000000 0.000000000000000 0.000000000000000 0.000000000000000 
0.000000000000000 1.000000000000000 0.000000000000000 0.000000000000000 
0.000000000000000 0.000000000000000 1.000000000000000 0.000000000000000 
1
1.000000000000000 0.000000000000000 0.000000000000000 0.000000000000000 
0.000000000000000 1.000000000000000 0.000000000000000 0.000000000000000 
0.000000000000000 0.000000000000000 1.000000000000000 0.000000000000000 
1
1.000000000000000 0.000000000000000 0.000000000000000 0.000000000000000 
0.000000000000000 1.000000000000000 0.000000000000000 0.000000000000000 
0.000000000000000 0.000000000000000 1.000000000000000 0.000000000000000 
2  2 1 3 -1 0
1
1.000000000000000 0.000000000000000 0.000000000000000 0.000000000000000 
0.000000000000000 1.000000000000000 0.000000000000000 0.000000000000000 
0.000000000000000 0.000000000000000 1.000000000000000 2.350000000000000 
2  2 1 3 -1 5 1 0
1
1.000000000000000 0.000000000000000 0.000000000000000 0.000000000000000 
0.000000000000000 1.000000000000000 0.000000000000000 0.000000000000000 
0.000000000000000 0.000000000000000 1.000000000000000 0.000000000000000 
2  7 1 2 -1 0
1
1.000000000000000 0.000000000000000 0.000000000000000 0.000000000000000 
0.000000000000000 1.000000000000000 0.000000000000000 0.000000000000000 
0.000000000000000 0.000000000000000 1.000000000000000 2.000000000000000 
2  9 -1 7 1 2 -1 0
1
1.000000000000000 0.000000000000000 0.000000000000000 0.000000000000000 
0.000000000000000 1.000000000000000 0.000000000000000 0.000000000000000 
0.000000000000000 0.000000000000000 1.000000000000000 0.000000000000000 
2  11 1 2 -1 0
1
1.000000000000000 0.000000000000000 0.000000000000000 0.000000000000000 
0.000000000000000 1.000000000000000 0.000000000000000 0.000000000000000 
0.000000000000000 0.000000000000000 1.000000000000000 2.000000000000000 
2  13 -1 11 1 2 -1 0
1
1.000000000000000 0.000000000000000 0.000000000000000 0.000000000000000 
0.000000000000000 1.000000000000000 0.000000000000000 0.000000000000000 
0.000000000000000 0.000000000000000 1.000000000000000 0.000000000000000 
2  15 1 2 -1 0
1
1.000000000000000 0.000000000000000 0.000000000000000 0.000000000000000 
0.000000000000000 1.000000000000000 0.000000000000000 0.000000000000000 
0.000000000000000 0.000000000000000 1.000000000000000 5.000000000000000 
2  17 -1 15 1 2 -1 0
2  3 1 2 -1 0
2  5 -1 3 1 2 -1 0
2  3 -1 0
2  3 -1 5 1 0
Curve2ds 10
1 0.00000000000000000 0.00000000000000000 0.00000000000000000 -1.00000000000000000 
1 6.28318530717958623 0.00000000000000000 0.00000000000000000 -1.00000000000000000 
1 0.00000000000000000 0.00000000000000000 1.00000000000000000 0.00000000000000000 
1 0.00000000000000000 -2.00000000000000000 1.00000000000000000 0.00000000000000000 
1 0.00000000000000000 0.00000000000000000 1.00000000000000000 0.00000000000000000 
1 0.00000000000000000 -2.00000000000000000 1.00000000000000000 0.00000000000000000 
1 0.00000000000000000 0.00000000000000000 1.00000000000000000 0.00000000000000000 
1 0.00000000000000000 -5.00000000000000000 1.00000000000000000 0.00000000000000000 
1 0.00000000000000000 0.00000000000000000 1.00000000000000000 0.00000000000000000 
1 0.00000000000000000 -2.35000000000000009 1.00000000000000000 0.00000000000000000 
Curves 14
1 -2.92403170698769621 2.49226984009775121 0.00000000000000000 0.00000000000000000 0.00000000000000000 1.00000000000000000 
1 -1.51483059917984564 5.25906893612065396 0.00000000000000000 0.00000000000000000 0.00000000000000000 1.00000000000000000 
1 -2.92403170698769621 2.49226984009775121 0.00000000000000000 0.45384898802185147 0.89107861385600617 0.00000000000000000 
1 -3.20634834959957438 7.86287244253487305 0.00000000000000000 0.00000000000000000 0.00000000000000000 1.00000000000000000 
1 -1.51483059917984564 5.25906893612065396 0.00000000000000000 -0.54477222235740053 0.83858406003678543 0.00000000000000000 
1 -6.30706720782714925 7.69987685292619339 0.00000000000000000 0.00000000000000000 0.00000000000000000 1.00000000000000000 
1 -3.20634834959957438 7.86287244253487305 0.00000000000000000 -0.99862121037925144 -0.05249455381922052 0.00000000000000000 
1 -7.71626831563499760 4.93307775690329464 0.00000000000000000 0.00000000000000000 0.00000000000000000 1.00000000000000000 
1 -6.30706720782714925 7.69987685292619339 0.00000000000000000 -0.45384898802185147 -0.89107861385600629 0.00000000000000000 
1 -6.02475056521527197 2.32927425048907466 0.00000000000000000 0.00000000000000000 0.00000000000000000 1.00000000000000000 
1 -7.71626831563499760 4.93307775690329464 0.00000000000000000 0.54477222235739975 -0.83858406003678609 0.00000000000000000 
1 -6.02475056521527197 2.32927425048907466 0.00000000000000000 0.99862121037925144 0.05249455381921950 0.00000000000000000 
1 -3.11554945740742184 5.09607334651197341 0.00000000000000000 0.00000000000000000 0.00000000000000000 1.00000000000000000 
2 -4.61554945740742184 5.09607334651197341 0.00000000000000000 0.00000000000000000 0.00000000000000000 1.00000000000000000 1.00000000000000000 0.00000000000000000 -0.00000000000000000 -0.00000000000000000 1.00000000000000000 0.00000000000000000 1.50000000000000000
Polygon3D 0
PolygonOnTriangulations 0
Surfaces 11
1 -2.92403170698769621 2.49226984009775121 0.00000000000000000 -0.89107861385600617 0.45384898802185147 0.00000000000000000 0.45384898802185147 0.89107861385600617 0.00000000000000000 0.00000000000000000 0.00000000000000000 -1.00000000000000000 
1 -1.51483059917984564 5.25906893612065396 0.00000000000000000 -0.83858406003678543 -0.54477222235740053 0.00000000000000000 -0.54477222235740053 0.83858406003678543 0.00000000000000000 -0.00000000000000000 0.00000000000000000 -1.00000000000000000 
1 -3.20634834959957438 7.86287244253487305 0.00000000000000000 0.05249455381922052 -0.99862121037925144 0.00000000000000000 -0.99862121037925144 -0.05249455381922052 0.00000000000000000 0.00000000000000000 -0.00000000000000000 -1.00000000000000000 
1 -6.30706720782714925 7.69987685292619339 0.00000000000000000 0.89107861385600629 -0.45384898802185147 0.00000000000000000 -0.45384898802185147 -0.89107861385600629 0.00000000000000000 0.00000000000000000 -0.00000000000000000 -1.00000000000000000 
1 -7.71626831563499760 4.93307775690329464 0.00000000000000000 0.83858406003678609 0.54477222235739975 -0.00000000000000000 0.54477222235739975 -0.83858406003678609 0.00000000000000000 0.00000000000000000 -0.00000000000000000 -1.00000000000000000 
1 -6.02475056521527197 2.32927425048907466 0.00000000000000000 -0.05249455381921950 0.99862121037925144 0.00000000000000000 0.99862121037925144 0.05249455381921950 0.00000000000000000 0.00000000000000000 0.00000000000000000 -1.00000000000000000 
2 -4.61554945740742184 5.09607334651197341 0.00000000000000000 -0.00000000000000000 -0.00000000000000000 -1.00000000000000000 1.00000000000000000 0.00000000000000000 0.00000000000000000 -0.00000000000000000 1.00000000000000000 -0.00000000000000000 1.50000000000000000
2 -4.61554945740742184 5.09607334651197341 0.00000000000000000 -0.00000000000000000 -0.00000000000000000 -1.00000000000000000 1.00000000000000000 0.00000000000000000 0.00000000000000000 -0.00000000000000000 1.00000000000000000 -0.00000000000000000 1.50000000000000000
2 -4.61554945740742184 5.09607334651197341 0.00000000000000000 -0.00000000000000000 -0.00000000000000000 -1.00000000000000000 1.00000000000000000 0.00000000000000000 0.00000000000000000 -0.00000000000000000 1.00000000000000000 -0.00000000000000000 1.50000000000000000
2 -4.61554945740742184 5.09607334651197341 0.00000000000000000 -0.00000000000000000 -0.00000000000000000 -1.00000000000000000 1.00000000000000000 0.00000000000000000 0.00000000000000000 -0.00000000000000000 1.00000000000000000 -0.00000000000000000 1.50000000000000000
1 -4.61554945740742184 5.09607334651197341 0.00000000000000000 0.00000000000000000 0.00000000000000000 1.00000000000000000 1.00000000000000000 0.00000000000000000 -0.00000000000000000 -0.00000000000000000 1.00000000000000000 0.00000000000000000 
Triangulations 0

TShapes 40
Ve
0.000000100000000
-2.924031706987696 2.492269840097751 0.000000000000000
0 0

0101101
*
Ed
 0.000000100000000 1 1 0
1  1 0 0.000000000000000 2.350000000000000
0

0101000
+40 4 -40 6 *
Ve
0.000000100000000
-1.514830599179846 5.259068936120654 0.000000000000000
0 0

0101101
*
Ed
 0.000000100000000 1 1 0
1  2 0 0.000000000000000 2.350000000000000
0

0101000
+38 4 -38 6 *
Ed
 0.000000100000000 1 1 0
1  3 0 0.000000000000000 3.105000000000004
0

0101000
+40 0 -38 0 *
Wi

0101100
+39 0 -37 0 -36 4 +36 6 *
Fa
0  0.000000100000000 1 0

0101000
+35 0 *
Ve
0.000000100000000
-3.206348349599574 7.862872442534873 0.000000000000000
0 0

0101101
*
Ed
 0.000000100000000 1 1 0
1  4 0 0.000000000000000 2.350000000000000
0

0101000
+33 4 -33 6 *
Ed
 0.000000100000000 1 1 0
1  5 0 0.000000000000000 3.105000000000000
0

0101000
+38 0 -33 0 *
Wi

0101100
+37 0 -32 0 -31 4 +31 6 *
Fa
0  0.000000100000000 2 0

0101000
+30 0 *
Ve
0.000000100000000
-6.307067207827149 7.699876852926193 0.000000000000000
0 0

0101101
*
Ed
 0.000000100000000 1 1 0
1  6 0 0.000000000000000 2.350000000000000
0

0101000
+28 4 -28 6 *
Ed
 0.000000100000000 1 1 0
1  7 0 0.000000000000000 3.104999999999999
0

0101000
+33 0 -28 0 *
Wi

0101100
+32 0 -27 0 -26 4 +26 6 *
Fa
0  0.000000100000000 3 0

0101000
+25 0 *
Ve
0.000000100000000
-7.716268315634998 4.933077756903295 0.000000000000000
0 0

0101101
*
Ed
 0.000000100000000 1 1 0
1  8 0 0.000000000000000 2.350000000000000
0

0101000
+23 4 -23 6 *
Ed
 0.000000100000000 1 1 0
1  9 0 0.000000000000000 3.104999999999999
0

0101000
+28 0 -23 0 *
Wi

0101100
+27 0 -22 0 -21 4 +21 6 *
Fa
0  0.000000100000000 4 0

0101000
+20 0 *
Ve
0.000000100000000
-6.024750565215272 2.329274250489075 0.000000000000000
0 0

0101101
*
Ed
 0.000000100000000 1 1 0
1  10 0 0.000000000000000 2.350000000000000
0

0101000
+18 4 -18 6 *
Ed
 0.000000100000000 1 1 0
1  11 0 0.000000000000000 3.104999999999999
0

0101000
+23 0 -18 0 *
Wi

0101100
+22 0 -17 0 -16 4 +16 6 *
Fa
0  0.000000100000000 5 0

0101000
+15 0 *
Ed
 0.000000100000000 1 1 0
1  12 0 0.000000000000000 3.105000000000000
0

0101000
+18 0 -40 0 *
Wi

0101100
+17 0 -39 0 -13 4 +13 6 *
Fa
0  0.000000100000000 6 0

0101000
+12 0 *
Ve
0.000000100000000
-3.115549457407422 5.096073346511973 0.000000000000000
0 0

0101101
*
Ed
 0.000000100000000 1 1 0
1  13 0 0.000000000000000 2.350000000000000
3  1 2CN 7 0 0.000000000000000 2.350000000000000
0

0101000
+10 4 -10 6 *
Ed
 0.000000100000000 1 1 0
1  14 0 0.000000000000000 6.283185307179586
2  3 8 8 0.000000000000000 6.283185307179586
2  4 8 10 0.000000000000000 6.283185307179586
2  5 9 12 0.000000000000000 6.283185307179586
2  6 9 14 0.000000000000000 6.283185307179586
2  7 10 16 0.000000000000000 6.283185307179586
2  8 10 18 0.000000000000000 6.283185307179586
2  9 7 19 0.000000000000000 6.283185307179586
2  10 7 20 0.000000000000000 6.283185307179586
0

0101000
+10 0 -10 0 *
Wi

0101100
+9 0 -9 0 -8 4 +8 6 *
Fa
0  0.000000100000000 7 0

0101000
+7 0 *
Wi

0101100
+36 2 +31 2 +26 2 +21 2 +16 2 +13 2 *
Wi

0101100
-8 2 *
Fa
0  0.000000100000000 11 0

0101000
+5 0 +4 0 *
Sh

0101100
+34 0 +29 0 +24 0 +19 0 +14 0 +11 0 -6 0 +3 21 -3 22 *
So

1100000
-2 0 *

+1 1 