
CASCADE Topology V1, (c) Matra-Datavision
Locations 1
1
1.000000000000000 0.000000000000000 0.000000000000000 0.000000000000000 
0.000000000000000 1.000000000000000 0.000000000000000 0.000000000000000 
0.000000000000000 0.000000000000000 1.000000000000000 0.000000000000000 
Curve2ds 6
1 0.00000000000000000 2.29999999999999982 1.00000000000000000 0.00000000000000000 
2 0.00000000000000000 0.00000000000000000 1.00000000000000000 0.00000000000000000 -0.00000000000000000 1.00000000000000000 3.00000000000000000
1 6.28318530717958623 -0.00000000000000000 0.00000000000000000 1.00000000000000000 
1 0.00000000000000000 -0.00000000000000000 0.00000000000000000 1.00000000000000000 
1 0.00000000000000000 0.00000000000000000 1.00000000000000000 0.00000000000000000 
2 0.00000000000000000 0.00000000000000000 1.00000000000000000 0.00000000000000000 -0.00000000000000000 1.00000000000000000 3.00000000000000000
Curves 3
2 0.00000000000000000 0.00000000000000000 2.29999999999999982 0.00000000000000000 0.00000000000000000 1.00000000000000000 1.00000000000000000 0.00000000000000000 -0.00000000000000000 -0.00000000000000000 1.00000000000000000 0.00000000000000000 3.00000000000000000
1 3.00000000000000000 -0.00000000000000073 0.00000000000000000 0.00000000000000000 0.00000000000000000 1.00000000000000000 
2 0.00000000000000000 0.00000000000000000 0.00000000000000000 0.00000000000000000 0.00000000000000000 1.00000000000000000 1.00000000000000000 0.00000000000000000 -0.00000000000000000 -0.00000000000000000 1.00000000000000000 0.00000000000000000 3.00000000000000000
Polygon3D 0
PolygonOnTriangulations 0
Surfaces 3
2 0.00000000000000000 0.00000000000000000 0.00000000000000000 0.00000000000000000 0.00000000000000000 1.00000000000000000 1.00000000000000000 0.00000000000000000 -0.00000000000000000 -0.00000000000000000 1.00000000000000000 0.00000000000000000 3.00000000000000000
1 0.00000000000000000 0.00000000000000000 2.29999999999999982 0.00000000000000000 0.00000000000000000 1.00000000000000000 1.00000000000000000 0.00000000000000000 -0.00000000000000000 -0.00000000000000000 1.00000000000000000 0.00000000000000000 
1 0.00000000000000000 0.00000000000000000 0.00000000000000000 0.00000000000000000 0.00000000000000000 1.00000000000000000 1.00000000000000000 0.00000000000000000 -0.00000000000000000 -0.00000000000000000 1.00000000000000000 0.00000000000000000 
Triangulations 0

TShapes 13
Ve
0.000000100000000
3.000000000000000 -0.000000000000001 2.300000000000000
0 0

0101101
*
Ed
 0.000000100000000 1 1 0
1  1 0 0.000000000000000 6.283185307179586
2  1 1 0 0.000000000000000 6.283185307179586
2  2 2 0 0.000000000000000 6.283185307179586
0

0101000
+13 0 -13 0 *
Ve
0.000000100000000
3.000000000000000 -0.000000000000001 0.000000000000000
0 0

0101101
*
Ed
 0.000000100000000 1 1 0
1  2 0 0.000000000000000 2.300000000000000
3  3 4CN 1 0 0.000000000000000 2.300000000000000
0

0101000
-13 0 +11 0 *
Ed
 0.000000100000000 1 1 0
1  3 0 0.000000000000000 6.283185307179586
2  5 1 0 0.000000000000000 6.283185307179586
2  6 3 0 0.000000000000000 6.283185307179586
0

0101000
+11 0 -11 0 *
Wi

0101100
-12 0 +10 0 +9 0 -10 0 *
Fa
0  0.000000100000000 1 0

0101000
+8 0 *
Wi

0101100
+12 0 *
Fa
0  0.000000100000000 2 0

0101000
+6 0 *
Wi

0101100
-9 0 *
Fa
0  0.000000100000000 3 0

0101000
-4 0 *
Sh

0101100
+7 0 +5 0 -3 0 *
So

0100000
+2 0 *

+1 1 