
CASCADE Topology V1, (c) Matra-Datavision
Locations 54
1
-0.000000000000003 -0.000000000001128 -1.000000000000000 -72.100439501789637 
-0.000000000001577 1.000000000000000 -0.000000000001128 -14.970440819467635 
1.000000000000000 0.000000000001577 -0.000000000000003 -4.293128539152294 
1
0.000000000000000 0.000000000000000 1.000000000000000 -14.739999999999993 
0.000000000000000 1.000000000000000 0.000000000000000 0.000000000000000 
-1.000000000000000 0.000000000000000 0.000000000000000 -8.739999999999995 
1
1.000000000000000 0.000000000000000 0.000000000000000 0.000000000000000 
0.000000000000000 1.000000000000000 0.000000000000000 0.000000000000000 
0.000000000000000 0.000000000000000 1.000000000000000 0.000000000000000 
1
1.000000000000000 0.000000000000000 0.000000000000000 0.000000000000000 
0.000000000000000 1.000000000000000 0.000000000000000 0.000000000000000 
0.000000000000000 0.000000000000000 1.000000000000000 0.000000000000000 
1
0.000000000000000 0.000000000000000 1.000000000000000 -14.739999999999993 
0.000000000000000 1.000000000000000 0.000000000000000 0.000000000000000 
-1.000000000000000 0.000000000000000 0.000000000000000 -8.739999999999995 
2  3 1 4 1 5 1 0
1
1.000000000000000 0.000000000000000 0.000000000000000 0.000000000000000 
0.000000000000000 1.000000000000000 0.000000000000000 0.000000000000000 
0.000000000000000 0.000000000000000 1.000000000000000 0.000000000000000 
2  7 -1 5 -1 4 -1 3 -1 0
2  7 -1 2 -1 0
1
1.000000000000000 0.000000000000000 0.000000000000000 0.000000000000000 
0.000000000000000 1.000000000000000 0.000000000000000 0.000000000000000 
0.000000000000000 0.000000000000000 1.000000000000000 2.000000000000000 
2  10 1 2 1 0
2  7 -1 2 -1 10 -1 0
2  7 -1 0
2  3 1 4 1 0
2  7 -1 4 -1 3 -1 0
1
1.000000000000000 0.000000000000000 0.000000000000000 0.000000000000000 
0.000000000000000 1.000000000000000 0.000000000000000 0.000000000000000 
0.000000000000000 0.000000000000000 1.000000000000000 0.000000000000000 
1
1.000000000000000 0.000000000000000 0.000000000000000 0.000000000000000 
0.000000000000000 1.000000000000000 0.000000000000000 0.000000000000000 
0.000000000000000 0.000000000000000 1.000000000000000 0.000000000000000 
2  16 1 17 -1 3 1 4 1 5 1 0
2  5 -1 4 -1 3 -1 17 1 16 -1 0
2  7 -1 5 -1 4 -1 3 -1 17 1 16 -1 0
1
1.000000000000000 0.000000000000000 0.000000000000000 0.000000000000000 
0.000000000000000 1.000000000000000 0.000000000000000 0.000000000000000 
0.000000000000000 0.000000000000000 1.000000000000000 2.000000000000000 
2  16 1 17 -1 21 1 3 1 4 1 5 1 0
2  5 -1 4 -1 3 -1 21 -1 17 1 16 -1 0
2  7 -1 5 -1 4 -1 3 -1 21 -1 17 1 16 -1 0
2  16 1 17 -1 3 1 4 1 0
2  4 -1 3 -1 17 1 16 -1 0
2  7 -1 4 -1 3 -1 17 1 16 -1 0
2  16 1 17 -1 21 1 3 1 4 1 0
2  4 -1 3 -1 21 -1 17 1 16 -1 0
2  7 -1 4 -1 3 -1 21 -1 17 1 16 -1 0
2  17 -1 3 1 4 1 0
2  3 -1 17 1 16 -1 0
2  17 -1 21 1 3 1 4 1 0
2  3 -1 21 -1 17 1 16 -1 0
2  7 -1 4 -1 0
1
0.000000000000000 0.000000000000000 -1.000000000000000 68.699999999999989 
0.000000000000000 1.000000000000000 0.000000000000000 0.000000000000000 
1.000000000000000 0.000000000000000 0.000000000000000 -62.700000000000003 
2  3 1 36 1 0
2  7 -1 4 -1 36 -1 3 -1 0
2  16 1 17 -1 3 1 0
2  16 1 17 -1 3 1 36 1 0
2  36 -1 3 -1 17 1 16 -1 0
2  7 -1 4 -1 36 -1 3 -1 17 1 16 -1 0
2  16 1 17 -1 0
2  16 1 17 -1 21 1 0
2  16 1 17 -1 21 1 3 1 0
2  16 1 17 -1 21 1 3 1 36 1 0
2  36 -1 3 -1 21 -1 17 1 16 -1 0
2  7 -1 4 -1 36 -1 3 -1 21 -1 17 1 16 -1 0
1
0.000000000000000 0.000000000000000 -1.000000000000000 68.699999999999989 
0.000000000000000 1.000000000000000 0.000000000000000 0.000000000000000 
1.000000000000000 0.000000000000000 0.000000000000000 -62.700000000000003 
2  7 -1 4 -1 49 -1 0
1
1.000000000000000 0.000000000000000 0.000000000000000 0.000000000000000 
0.000000000000000 1.000000000000000 0.000000000000000 0.000000000000000 
0.000000000000000 0.000000000000000 1.000000000000000 2.000000000000000 
2  51 1 49 1 0
2  7 -1 4 -1 49 -1 51 -1 0
2  49 1 4 1 0
Curve2ds 16
1 0.00000000000000000 0.00000000000000000 1.00000000000000000 0.00000000000000000 
1 0.00000000000000000 0.00000000000000000 1.00000000000000000 0.00000000000000000 
1 1.57079632679489656 0.00000000000000000 0.00000000000000000 1.00000000000000000 
1 1.57079632679489656 0.00000000000000000 0.00000000000000000 1.00000000000000000 
1 0.00000000000000000 77.82892600000000982 1.00000000000000000 0.00000000000000000 
1 0.00000000000000000 0.00000000000000000 0.00000000000000000 1.00000000000000000 
1 0.00000000000000000 77.82892600000000982 1.00000000000000000 0.00000000000000000 
1 0.00000000000000000 0.00000000000000000 0.00000000000000000 1.00000000000000000 
1 0.00000000000000000 0.00000000000000000 0.00000000000000000 1.00000000000000000 
1 0.00000000000000000 0.00000000000000000 0.00000000000000000 1.00000000000000000 
1 0.00000000000000000 77.82892600000000982 1.00000000000000000 0.00000000000000000 
1 0.00000000000000000 77.82892600000000982 1.00000000000000000 0.00000000000000000 
1 0.00000000000000000 0.00000000000000000 1.00000000000000000 0.00000000000000000 
1 1.57079632679489656 0.00000000000000000 0.00000000000000000 1.00000000000000000 
1 0.00000000000000000 0.00000000000000000 1.00000000000000000 0.00000000000000000 
1 1.57079632679489656 0.00000000000000000 0.00000000000000000 1.00000000000000000 
Curves 56
1 -11.73999999999999488 -12.39883400000000790 0.00000000000000000 0.00000000000000000 0.00000000000000000 1.00000000000000000 
1 -44.73999999999999488 -12.39883400000000790 0.00000000000000000 0.00000000000000000 0.00000000000000000 1.00000000000000000 
1 -11.73999999999999488 -12.39883400000000790 0.00000000000000000 -1.00000000000000000 0.00000000000000000 0.00000000000000000 
1 -11.73999999999999488 -12.39883400000000790 0.00000000000000000 -1.00000000000000000 0.00000000000000000 0.00000000000000000 
2 -11.73999999999999488 -12.39883400000000790 3.00000000000000000 0.00000000000000000 1.00000000000000000 0.00000000000000000 0.00000000000000000 0.00000000000000000 -1.00000000000000000 -1.00000000000000000 0.00000000000000000 0.00000000000000000 3.00000000000000000
2 -11.73999999999999488 -12.39883400000000790 3.00000000000000000 0.00000000000000000 1.00000000000000000 0.00000000000000000 0.00000000000000000 0.00000000000000000 -1.00000000000000000 -1.00000000000000000 0.00000000000000000 0.00000000000000000 1.00000000000000000
1 -11.73999999999999488 -12.39883400000000790 0.00000000000000000 0.00000000000000000 0.00000000000000000 1.00000000000000000 
1 -44.73999999999999488 65.43009200000000192 0.00000000000000000 0.00000000000000000 0.00000000000000000 1.00000000000000000 
1 -44.73999999999999488 -12.39883400000000790 0.00000000000000000 0.00000000000000000 1.00000000000000000 0.00000000000000000 
1 -44.73999999999999488 -12.39883400000000790 0.00000000000000000 0.00000000000000000 1.00000000000000000 0.00000000000000000 
1 -11.73999999999999488 -12.39883400000000790 0.00000000000000000 0.00000000000000000 1.00000000000000000 0.00000000000000000 
1 -44.73999999999999488 65.43009200000000192 0.00000000000000000 1.00000000000000000 0.00000000000000000 0.00000000000000000 
1 -11.73999999999999488 -12.39883400000000790 0.00000000000000000 0.00000000000000000 1.00000000000000000 0.00000000000000000 
1 -44.73999999999999488 65.43009200000000192 0.00000000000000000 1.00000000000000000 0.00000000000000000 0.00000000000000000 
2 -11.73999999999999488 65.43009200000000192 3.00000000000000000 0.00000000000000000 1.00000000000000000 0.00000000000000000 0.00000000000000000 0.00000000000000000 -1.00000000000000000 -1.00000000000000000 0.00000000000000000 0.00000000000000000 3.00000000000000000
1 -11.73999999999999488 -12.39883400000000790 0.00000000000000000 0.00000000000000000 1.00000000000000000 0.00000000000000000 
2 -11.73999999999999488 65.43009200000000192 3.00000000000000000 0.00000000000000000 1.00000000000000000 0.00000000000000000 0.00000000000000000 0.00000000000000000 -1.00000000000000000 -1.00000000000000000 0.00000000000000000 0.00000000000000000 1.00000000000000000
1 -11.73999999999999488 -12.39883400000000790 0.00000000000000000 0.00000000000000000 1.00000000000000000 0.00000000000000000 
1 65.70000000000000284 -12.39883400000000790 0.00000000000000000 0.00000000000000000 0.00000000000000000 1.00000000000000000 
1 65.70000000000000284 -12.39883400000000790 0.00000000000000000 -1.00000000000000000 0.00000000000000000 0.00000000000000000 
1 65.70000000000000284 -12.39883400000000790 0.00000000000000000 -1.00000000000000000 0.00000000000000000 0.00000000000000000 
1 -11.73999999999999488 65.43009200000000192 0.00000000000000000 0.00000000000000000 0.00000000000000000 1.00000000000000000 
1 -11.73999999999999488 65.43009200000000192 0.00000000000000000 0.00000000000000000 0.00000000000000000 1.00000000000000000 
1 -11.73999999999999488 65.43009200000000192 0.00000000000000000 1.00000000000000000 0.00000000000000000 0.00000000000000000 
1 65.70000000000000284 65.43009200000000192 0.00000000000000000 0.00000000000000000 -1.00000000000000000 0.00000000000000000 
1 20.30599000000000132 3.08436500000000180 0.00000000000000000 1.00000000000000000 0.00000000000000000 0.00000000000000000 
1 33.35115299999999650 3.08436500000000180 0.00000000000000000 0.00000000000000000 1.00000000000000000 0.00000000000000000 
1 33.35115299999999650 22.65211499999999489 0.00000000000000000 -1.00000000000000000 0.00000000000000000 0.00000000000000000 
1 20.30599000000000132 22.65211499999999489 0.00000000000000000 0.00000000000000000 -1.00000000000000000 0.00000000000000000 
1 -11.73999999999999488 65.43009200000000192 0.00000000000000000 1.00000000000000000 0.00000000000000000 0.00000000000000000 
1 65.70000000000000284 65.43009200000000192 0.00000000000000000 0.00000000000000000 -1.00000000000000000 0.00000000000000000 
1 20.30599000000000132 3.08436500000000180 0.00000000000000000 1.00000000000000000 0.00000000000000000 0.00000000000000000 
1 33.35115299999999650 3.08436500000000180 0.00000000000000000 0.00000000000000000 1.00000000000000000 0.00000000000000000 
1 33.35115299999999650 22.65211499999999489 0.00000000000000000 -1.00000000000000000 0.00000000000000000 0.00000000000000000 
1 20.30599000000000132 22.65211499999999489 0.00000000000000000 0.00000000000000000 -1.00000000000000000 0.00000000000000000 
2 65.70000000000000284 -12.39883400000000790 3.00000000000000000 0.00000000000000000 -1.00000000000000000 0.00000000000000000 0.00000000000000000 0.00000000000000000 -1.00000000000000000 1.00000000000000000 0.00000000000000000 0.00000000000000000 3.00000000000000000
2 65.70000000000000284 -12.39883400000000790 3.00000000000000000 0.00000000000000000 -1.00000000000000000 0.00000000000000000 0.00000000000000000 0.00000000000000000 -1.00000000000000000 1.00000000000000000 0.00000000000000000 0.00000000000000000 1.00000000000000000
1 65.70000000000000284 -12.39883400000000790 0.00000000000000000 0.00000000000000000 0.00000000000000000 1.00000000000000000 
1 65.70000000000000284 65.43009200000000192 0.00000000000000000 0.00000000000000000 0.00000000000000000 1.00000000000000000 
2 65.70000000000000284 65.43009200000000192 3.00000000000000000 0.00000000000000000 -1.00000000000000000 0.00000000000000000 0.00000000000000000 0.00000000000000000 -1.00000000000000000 1.00000000000000000 0.00000000000000000 0.00000000000000000 3.00000000000000000
1 65.70000000000000284 65.43009200000000192 0.00000000000000000 0.00000000000000000 -1.00000000000000000 0.00000000000000000 
1 20.30599000000000132 3.08436500000000180 0.00000000000000000 0.00000000000000000 0.00000000000000000 1.00000000000000000 
1 33.35115299999999650 3.08436500000000180 0.00000000000000000 0.00000000000000000 0.00000000000000000 1.00000000000000000 
1 33.35115299999999650 22.65211499999999489 0.00000000000000000 0.00000000000000000 0.00000000000000000 1.00000000000000000 
1 20.30599000000000132 22.65211499999999489 0.00000000000000000 0.00000000000000000 0.00000000000000000 1.00000000000000000 
2 65.70000000000000284 65.43009200000000192 3.00000000000000000 0.00000000000000000 -1.00000000000000000 0.00000000000000000 0.00000000000000000 0.00000000000000000 -1.00000000000000000 1.00000000000000000 0.00000000000000000 0.00000000000000000 1.00000000000000000
1 65.70000000000000284 65.43009200000000192 0.00000000000000000 0.00000000000000000 -1.00000000000000000 0.00000000000000000 
1 75.70000000000000284 -12.39883400000000790 0.00000000000000000 0.00000000000000000 0.00000000000000000 1.00000000000000000 
1 75.70000000000000284 -12.39883400000000790 0.00000000000000000 -1.00000000000000000 0.00000000000000000 0.00000000000000000 
1 75.70000000000000284 -12.39883400000000790 0.00000000000000000 -1.00000000000000000 0.00000000000000000 0.00000000000000000 
1 65.70000000000000284 65.43009200000000192 0.00000000000000000 0.00000000000000000 0.00000000000000000 1.00000000000000000 
1 65.70000000000000284 65.43009200000000192 0.00000000000000000 1.00000000000000000 0.00000000000000000 0.00000000000000000 
1 75.70000000000000284 65.43009200000000192 0.00000000000000000 0.00000000000000000 -1.00000000000000000 0.00000000000000000 
1 65.70000000000000284 65.43009200000000192 0.00000000000000000 1.00000000000000000 0.00000000000000000 0.00000000000000000 
1 75.70000000000000284 65.43009200000000192 0.00000000000000000 0.00000000000000000 -1.00000000000000000 0.00000000000000000 
1 75.70000000000000284 65.43009200000000192 0.00000000000000000 0.00000000000000000 0.00000000000000000 1.00000000000000000 
Polygon3D 0
PolygonOnTriangulations 0
Surfaces 26
1 -11.73999999999999488 -12.39883400000000790 0.00000000000000000 0.00000000000000000 -1.00000000000000000 0.00000000000000000 -1.00000000000000000 0.00000000000000000 0.00000000000000000 -0.00000000000000000 -0.00000000000000000 -1.00000000000000000 
1 -11.73999999999999488 -12.39883400000000790 3.00000000000000000 0.00000000000000000 1.00000000000000000 0.00000000000000000 0.00000000000000000 0.00000000000000000 -1.00000000000000000 -1.00000000000000000 0.00000000000000000 0.00000000000000000 
2 -11.73999999999999488 -12.39883400000000790 3.00000000000000000 0.00000000000000000 1.00000000000000000 0.00000000000000000 0.00000000000000000 0.00000000000000000 -1.00000000000000000 -1.00000000000000000 0.00000000000000000 0.00000000000000000 3.00000000000000000
2 -11.73999999999999488 -12.39883400000000790 3.00000000000000000 0.00000000000000000 1.00000000000000000 0.00000000000000000 0.00000000000000000 0.00000000000000000 -1.00000000000000000 -1.00000000000000000 0.00000000000000000 0.00000000000000000 1.00000000000000000
1 -44.73999999999999488 -12.39883400000000790 0.00000000000000000 -1.00000000000000000 0.00000000000000000 0.00000000000000000 0.00000000000000000 1.00000000000000000 0.00000000000000000 0.00000000000000000 0.00000000000000000 -1.00000000000000000 
1 -28.23999999999999488 26.51562899999999701 0.00000000000000000 -0.00000000000000000 -0.00000000000000000 -1.00000000000000000 -1.00000000000000000 0.00000000000000000 0.00000000000000000 0.00000000000000000 1.00000000000000000 0.00000000000000000 
1 -28.23999999999999488 26.51562899999999701 0.00000000000000000 -0.00000000000000000 -0.00000000000000000 -1.00000000000000000 -1.00000000000000000 0.00000000000000000 0.00000000000000000 0.00000000000000000 1.00000000000000000 0.00000000000000000 
1 65.70000000000000284 -12.39883400000000790 0.00000000000000000 0.00000000000000000 -1.00000000000000000 0.00000000000000000 -1.00000000000000000 0.00000000000000000 0.00000000000000000 -0.00000000000000000 -0.00000000000000000 -1.00000000000000000 
1 -44.73999999999999488 65.43009200000000192 0.00000000000000000 0.00000000000000000 1.00000000000000000 0.00000000000000000 1.00000000000000000 0.00000000000000000 0.00000000000000000 0.00000000000000000 0.00000000000000000 -1.00000000000000000 
1 -11.73999999999999488 65.43009200000000192 3.00000000000000000 0.00000000000000000 1.00000000000000000 0.00000000000000000 0.00000000000000000 0.00000000000000000 -1.00000000000000000 -1.00000000000000000 0.00000000000000000 0.00000000000000000 
1 26.98000000000000398 26.51562899999999701 0.00000000000000000 -0.00000000000000000 -0.00000000000000000 -1.00000000000000000 -1.00000000000000000 0.00000000000000000 0.00000000000000000 0.00000000000000000 1.00000000000000000 0.00000000000000000 
2 65.70000000000000284 65.43009200000000192 3.00000000000000000 0.00000000000000000 -1.00000000000000000 0.00000000000000000 0.00000000000000000 0.00000000000000000 -1.00000000000000000 1.00000000000000000 0.00000000000000000 0.00000000000000000 3.00000000000000000
1 26.98000000000000398 26.51562899999999701 0.00000000000000000 -0.00000000000000000 -0.00000000000000000 -1.00000000000000000 -1.00000000000000000 0.00000000000000000 0.00000000000000000 0.00000000000000000 1.00000000000000000 0.00000000000000000 
2 65.70000000000000284 65.43009200000000192 3.00000000000000000 0.00000000000000000 -1.00000000000000000 0.00000000000000000 0.00000000000000000 0.00000000000000000 -1.00000000000000000 1.00000000000000000 0.00000000000000000 0.00000000000000000 1.00000000000000000
1 65.70000000000000284 -12.39883400000000790 3.00000000000000000 0.00000000000000000 -1.00000000000000000 0.00000000000000000 0.00000000000000000 0.00000000000000000 -1.00000000000000000 1.00000000000000000 0.00000000000000000 0.00000000000000000 
1 -11.73999999999999488 65.43009200000000192 0.00000000000000000 0.00000000000000000 1.00000000000000000 0.00000000000000000 1.00000000000000000 0.00000000000000000 0.00000000000000000 0.00000000000000000 0.00000000000000000 -1.00000000000000000 
1 20.30599000000000132 3.08436500000000180 0.00000000000000000 0.00000000000000000 1.00000000000000000 0.00000000000000000 1.00000000000000000 0.00000000000000000 0.00000000000000000 0.00000000000000000 0.00000000000000000 -1.00000000000000000 
1 33.35115299999999650 3.08436500000000180 0.00000000000000000 -1.00000000000000000 0.00000000000000000 0.00000000000000000 0.00000000000000000 1.00000000000000000 0.00000000000000000 0.00000000000000000 0.00000000000000000 -1.00000000000000000 
1 33.35115299999999650 22.65211499999999489 0.00000000000000000 0.00000000000000000 -1.00000000000000000 0.00000000000000000 -1.00000000000000000 0.00000000000000000 0.00000000000000000 -0.00000000000000000 -0.00000000000000000 -1.00000000000000000 
1 20.30599000000000132 22.65211499999999489 0.00000000000000000 1.00000000000000000 0.00000000000000000 0.00000000000000000 0.00000000000000000 -1.00000000000000000 0.00000000000000000 0.00000000000000000 0.00000000000000000 -1.00000000000000000 
1 75.70000000000000284 -12.39883400000000790 0.00000000000000000 0.00000000000000000 -1.00000000000000000 0.00000000000000000 -1.00000000000000000 0.00000000000000000 0.00000000000000000 -0.00000000000000000 -0.00000000000000000 -1.00000000000000000 
1 65.70000000000000284 65.43009200000000192 3.00000000000000000 0.00000000000000000 -1.00000000000000000 0.00000000000000000 0.00000000000000000 0.00000000000000000 -1.00000000000000000 1.00000000000000000 0.00000000000000000 0.00000000000000000 
1 70.70000000000001705 26.51562899999999345 0.00000000000000000 -0.00000000000000000 -0.00000000000000000 -1.00000000000000000 -1.00000000000000000 0.00000000000000000 0.00000000000000000 0.00000000000000000 1.00000000000000000 0.00000000000000000 
1 70.70000000000001705 26.51562899999999345 0.00000000000000000 -0.00000000000000000 -0.00000000000000000 -1.00000000000000000 -1.00000000000000000 0.00000000000000000 0.00000000000000000 0.00000000000000000 1.00000000000000000 0.00000000000000000 
1 75.70000000000000284 65.43009200000000192 0.00000000000000000 1.00000000000000000 0.00000000000000000 0.00000000000000000 0.00000000000000000 -1.00000000000000000 0.00000000000000000 0.00000000000000000 0.00000000000000000 -1.00000000000000000 
1 65.70000000000000284 65.43009200000000192 0.00000000000000000 0.00000000000000000 1.00000000000000000 0.00000000000000000 1.00000000000000000 0.00000000000000000 0.00000000000000000 0.00000000000000000 0.00000000000000000 -1.00000000000000000 
Triangulations 0

TShapes 145
Ve
0.000000100000007
-14.739999999999995 -12.398834000000008 3.000000000000000
0 0

0101101
*
Ve
0.000000100000007
-12.739999999999995 -12.398834000000008 3.000000000000000
0 0

0101101
*
Ed
 0.000000100000000 1 1 0
1  1 0 0.000000000000000 2.000000000000000
0

0101000
+145 8 -144 8 *
Ve
0.000000100000000
-14.739999999999998 -12.398834000000008 36.000000000000000
0 0

0101101
*
Ve
0.000000100000000
-12.739999999999998 -12.398834000000008 36.000000000000000
0 0

0101101
*
Ed
 0.000000100000000 1 1 0
1  2 0 0.000000000000000 2.000000000000000
0

0101000
+142 9 -141 9 *
Ed
 0.000000100000000 1 1 0
1  3 0 0.000000000000000 33.000000000000000
0

0101000
+145 9 -142 9 *
Ed
 0.000000100000000 1 1 0
1  4 0 0.000000000000000 33.000000000000000
0

0101000
+144 12 -141 12 *
Wi

0101100
+143 6 -140 2 -139 2 +138 11 *
Fa
0  0.000000100000000 1 2

0101000
+137 0 *
Ve
0.000000100000000
-11.739999999999995 -12.398834000000008 0.000000000000000
0 0

0101101
*
Ed
 0.000000100000000 1 1 0
1  5 0 0.000000000000000 1.570796326794897
2  1 3 0 0.000000000000000 1.570796326794897
0

0101000
+135 13 -145 13 *
Ve
0.000000100000000
-11.739999999999995 -12.398834000000008 2.000000000000000
0 0

0101101
*
Ed
 0.000000100000000 1 1 0
1  6 0 0.000000000000000 1.570796326794897
2  2 4 0 0.000000000000000 1.570796326794897
0

0101000
+133 13 -144 13 *
Ed
 0.000000100000000 1 1 0
1  7 0 0.000000000000000 2.000000000000000
0

0101000
+135 15 -133 15 *
Wi

0101100
+134 0 -132 0 -131 14 +143 6 *
Fa
0  0.000000100000000 2 0

0101000
+130 0 *
Ve
0.000000100000000
-14.739999999999998 65.430092000000002 36.000000000000000
0 0

0101101
*
Ve
0.000000100000000
-12.739999999999998 65.430092000000002 36.000000000000000
0 0

0101101
*
Ed
 0.000000100000000 1 1 0
1  8 0 0.000000000000000 2.000000000000000
0

0101000
+128 9 -127 9 *
Ed
 0.000000100000000 1 1 0
1  9 0 0.000000000000000 77.828926000000010
0

0101000
+142 9 -128 9 *
Ed
 0.000000100000000 1 1 0
1  10 0 0.000000000000000 77.828926000000010
0

0101000
+141 12 -127 12 *
Wi

0101100
+140 0 -126 0 -125 0 +124 10 *
Fa
0  0.000000100000000 5 0

0101000
+123 0 *
Ve
0.000000100000007
-14.739999999999995 65.430092000000002 3.000000000000000
0 0

0101101
*
Ed
 0.000000100000007 1 1 0
1  11 0 0.000000000000000 77.828926000000010
2  3 3 19 0.000000000000000 77.828926000000010
0

0101000
+145 20 -121 20 *
Ed
 0.000000100000000 1 1 0
1  12 0 0.000000000000000 33.000000000000000
0

0101000
+128 9 -121 9 *
Wi

0101100
-120 18 +139 2 +125 2 +119 2 *
Fa
0  0.000000100000000 6 2

0101000
+118 0 *
Ve
0.000000100000007
-12.739999999999995 65.430092000000002 3.000000000000000
0 0

0101101
*
Ed
 0.000000100000007 1 1 0
1  13 0 0.000000000000000 77.828926000000010
2  4 4 23 0.000000000000000 77.828926000000010
0

0101000
+144 24 -116 24 *
Ed
 0.000000100000000 1 1 0
1  14 0 0.000000000000000 33.000000000000000
0

0101000
+127 12 -116 12 *
Wi

0101100
-115 22 +138 11 +124 11 +114 11 *
Fa
0  0.000000100000000 7 11

0101000
+113 0 *
Ve
0.000000100000000
-11.739999999999995 65.430092000000002 0.000000000000000
0 0

0101101
*
Ed
 0.000000100000000 1 1 0
1  15 0 0.000000000000000 1.570796326794897
2  5 3 0 0.000000000000000 1.570796326794897
0

0101000
+111 13 -121 13 *
Ed
 0.000000100000000 1 1 0
1  16 0 0.000000000000000 77.828926000000010
2  6 3 26 0.000000000000000 77.828926000000010
0

0101000
+135 27 -111 27 *
Wi

0101100
+134 0 -110 0 -109 25 +120 18 *
Fa
0  0.000000100000000 3 0

0101000
+108 0 *
Ve
0.000000100000000
-11.739999999999995 65.430092000000002 2.000000000000000
0 0

0101101
*
Ed
 0.000000100000000 1 1 0
1  17 0 0.000000000000000 1.570796326794897
2  7 4 0 0.000000000000000 1.570796326794897
0

0101000
+106 13 -116 13 *
Ed
 0.000000100000000 1 1 0
1  18 0 0.000000000000000 77.828926000000010
2  8 4 29 0.000000000000000 77.828926000000010
0

0101000
+133 30 -106 30 *
Wi

0101100
+132 0 -105 0 -104 28 +115 22 *
Fa
0  0.000000100000000 4 0

0101000
+103 0 *
Ve
0.000000100000000
65.700000000000003 -12.398834000000008 0.000000000000000
0 0

0101101
*
Ve
0.000000100000000
65.700000000000003 -12.398834000000008 2.000000000000000
0 0

0101101
*
Ed
 0.000000100000000 1 1 0
1  19 0 0.000000000000000 2.000000000000000
0

0101000
+101 15 -100 15 *
Ed
 0.000000100000000 1 1 0
1  20 0 0.000000000000000 77.439999999999998
0

0101000
+101 27 -135 27 *
Ed
 0.000000100000000 1 1 0
1  21 0 0.000000000000000 77.439999999999998
0

0101000
+100 30 -133 30 *
Wi

0101100
+99 14 -131 14 -98 25 +97 28 *
Fa
0  0.000000100000000 8 14

0101000
+96 0 *
Ed
 0.000000100000000 1 1 0
1  22 0 0.000000000000000 2.000000000000000
0

0101000
+121 8 -116 8 *
Wi

0101100
+126 2 -94 6 -119 2 +114 11 *
Fa
0  0.000000100000000 9 2

0101000
+93 0 *
Ed
 0.000000100000000 1 1 0
1  23 0 0.000000000000000 2.000000000000000
0

0101000
+111 15 -106 15 *
Wi

0101100
+110 0 -105 0 -91 14 +94 6 *
Fa
0  0.000000100000000 10 0

0101000
+90 0 *
Ve
0.000000100000000
65.700000000000003 65.430092000000002 0.000000000000000
0 0

0101101
*
Ed
 0.000000100000000 1 1 0
1  24 0 0.000000000000000 77.439999999999998
0

0101000
+111 27 -88 27 *
Ed
 0.000000100000000 1 1 0
1  25 0 0.000000000000000 77.828926000000010
2  9 12 32 0.000000000000000 77.828926000000010
0

0101000
+88 27 -101 27 *
Wi

0101100
+87 25 +86 25 +98 25 +109 25 *
Ve
0.000000100000000
20.305990000000001 3.084365000000002 0.000000000000000
0 0

0101101
*
Ve
0.000000100000000
33.351152999999996 3.084365000000002 0.000000000000000
0 0

0101101
*
Ed
 0.000000100000000 1 1 0
1  26 0 0.000000000000000 13.045162999999995
0

0101000
+84 27 -83 27 *
Ve
0.000000100000000
33.351152999999996 22.652114999999995 0.000000000000000
0 0

0101101
*
Ed
 0.000000100000000 1 1 0
1  27 0 0.000000000000000 19.567749999999993
0

0101000
+83 27 -81 27 *
Ve
0.000000100000000
20.305990000000001 22.652114999999995 0.000000000000000
0 0

0101101
*
Ed
 0.000000100000000 1 1 0
1  28 0 0.000000000000000 13.045162999999995
0

0101000
+81 27 -79 27 *
Ed
 0.000000100000000 1 1 0
1  29 0 0.000000000000000 19.567749999999993
0

0101000
+79 27 -84 27 *
Wi

0101100
+82 25 +80 25 +78 25 +77 25 *
Fa
0  0.000000100000000 11 31

0101000
+85 0 +76 0 *
Ve
0.000000100000000
65.700000000000003 65.430092000000002 2.000000000000000
0 0

0101101
*
Ed
 0.000000100000000 1 1 0
1  30 0 0.000000000000000 77.439999999999998
0

0101000
+106 30 -74 30 *
Ed
 0.000000100000000 1 1 0
1  31 0 0.000000000000000 77.828926000000010
2  10 14 34 0.000000000000000 77.828926000000010
0

0101000
+74 30 -100 30 *
Wi

0101100
+73 28 +72 28 +97 28 +104 28 *
Ve
0.000000100000000
20.305990000000001 3.084365000000002 2.000000000000000
0 0

0101101
*
Ve
0.000000100000000
33.351152999999996 3.084365000000002 2.000000000000000
0 0

0101101
*
Ed
 0.000000100000000 1 1 0
1  32 0 0.000000000000000 13.045162999999995
0

0101000
+70 30 -69 30 *
Ve
0.000000100000000
33.351152999999996 22.652114999999995 2.000000000000000
0 0

0101101
*
Ed
 0.000000100000000 1 1 0
1  33 0 0.000000000000000 19.567749999999993
0

0101000
+69 30 -67 30 *
Ve
0.000000100000000
20.305990000000001 22.652114999999995 2.000000000000000
0 0

0101101
*
Ed
 0.000000100000000 1 1 0
1  34 0 0.000000000000000 13.045162999999995
0

0101000
+67 30 -65 30 *
Ed
 0.000000100000000 1 1 0
1  35 0 0.000000000000000 19.567749999999993
0

0101000
+65 30 -70 30 *
Wi

0101100
+68 28 +66 28 +64 28 +63 28 *
Fa
0  0.000000100000000 13 33

0101000
+71 0 +62 0 *
Ve
0.000000100000007
68.700000000000003 -12.398834000000008 3.000000000000000
0 0

0101101
*
Ed
 0.000000100000000 1 1 0
1  36 0 0.000000000000000 1.570796326794897
2  11 12 0 0.000000000000000 1.570796326794897
0

0101000
+101 35 -60 35 *
Ve
0.000000100000007
66.700000000000003 -12.398834000000008 3.000000000000000
0 0

0101101
*
Ed
 0.000000100000000 1 1 0
1  37 0 0.000000000000000 1.570796326794897
2  12 14 0 0.000000000000000 1.570796326794897
0

0101000
+100 35 -58 35 *
Ed
 0.000000100000000 1 1 0
1  38 0 0.000000000000000 2.000000000000000
0

0101000
+60 38 -58 38 *
Wi

0101100
+59 0 -57 0 -99 3 +56 37 *
Fa
0  0.000000100000000 15 0

0101000
+55 0 *
Ed
 0.000000100000000 1 1 0
1  39 0 0.000000000000000 2.000000000000000
0

0101000
+88 15 -74 15 *
Wi

0101100
+91 14 -53 14 -87 25 +73 28 *
Fa
0  0.000000100000000 16 14

0101000
+52 0 *
Ve
0.000000100000007
68.700000000000003 65.430092000000002 3.000000000000000
0 0

0101101
*
Ed
 0.000000100000000 1 1 0
1  40 0 0.000000000000000 1.570796326794897
2  13 12 0 0.000000000000000 1.570796326794897
0

0101000
+88 35 -50 35 *
Ed
 0.000000100000007 1 1 0
1  41 0 0.000000000000000 77.828926000000010
2  14 12 41 0.000000000000000 77.828926000000010
0

0101000
+50 42 -60 42 *
Wi

0101100
+49 0 -59 0 -86 39 +48 40 *
Fa
0  0.000000100000000 12 0

0101000
+47 0 *
Ed
 0.000000100000000 1 1 0
1  42 0 0.000000000000000 2.000000000000000
0

0101000
+84 15 -70 15 *
Ed
 0.000000100000000 1 1 0
1  43 0 0.000000000000000 2.000000000000000
0

0101000
+83 15 -69 15 *
Wi

0101100
+45 0 -44 0 -82 43 +68 44 *
Fa
0  0.000000100000000 17 0

0101000
+43 0 *
Ed
 0.000000100000000 1 1 0
1  44 0 0.000000000000000 2.000000000000000
0

0101000
+81 15 -67 15 *
Wi

0101100
+44 0 -41 0 -80 43 +66 44 *
Fa
0  0.000000100000000 18 0

0101000
+40 0 *
Ed
 0.000000100000000 1 1 0
1  45 0 0.000000000000000 2.000000000000000
0

0101000
+79 15 -65 15 *
Wi

0101100
+41 0 -38 0 -78 43 +64 44 *
Fa
0  0.000000100000000 19 0

0101000
+37 0 *
Wi

0101100
+38 0 -45 0 -77 43 +63 44 *
Fa
0  0.000000100000000 20 0

0101000
+35 0 *
Ve
0.000000100000007
66.700000000000003 65.430092000000002 3.000000000000000
0 0

0101101
*
Ed
 0.000000100000000 1 1 0
1  46 0 0.000000000000000 1.570796326794897
2  15 14 0 0.000000000000000 1.570796326794897
0

0101000
+74 35 -33 35 *
Ed
 0.000000100000007 1 1 0
1  47 0 0.000000000000000 77.828926000000010
2  16 14 47 0.000000000000000 77.828926000000010
0

0101000
+33 48 -58 48 *
Wi

0101100
+32 0 -57 0 -72 45 +31 46 *
Fa
0  0.000000100000000 14 0

0101000
+30 0 *
Ve
0.000000100000000
68.699999999999989 -12.398834000000008 13.000000000000000
0 0

0101101
*
Ve
0.000000100000000
66.699999999999989 -12.398834000000008 13.000000000000000
0 0

0101101
*
Ed
 0.000000100000000 1 1 0
1  48 0 0.000000000000000 2.000000000000000
0

0101000
+28 50 -27 50 *
Ed
 0.000000100000000 1 1 0
1  49 0 0.000000000000000 10.000000000000000
0

0101000
+28 50 -60 50 *
Ed
 0.000000100000000 1 1 0
1  50 0 0.000000000000000 10.000000000000000
0

0101000
+27 53 -58 53 *
Wi

0101100
+26 49 -56 37 -25 49 +24 52 *
Fa
0  0.000000100000000 21 49

0101000
+23 0 *
Ed
 0.000000100000000 1 1 0
1  51 0 0.000000000000000 2.000000000000000
0

0101000
+50 38 -33 38 *
Wi

0101100
+49 0 -32 0 -53 3 +21 37 *
Fa
0  0.000000100000000 22 0

0101000
+20 0 *
Ve
0.000000100000000
68.699999999999989 65.430092000000002 13.000000000000000
0 0

0101101
*
Ed
 0.000000100000000 1 1 0
1  52 0 0.000000000000000 10.000000000000000
0

0101000
+50 50 -18 50 *
Ed
 0.000000100000000 1 1 0
1  53 0 0.000000000000000 77.828926000000010
0

0101000
+18 50 -28 50 *
Wi

0101100
-48 40 +17 49 +16 49 +25 49 *
Fa
0  0.000000100000000 23 49

0101000
+15 0 *
Ve
0.000000100000000
66.699999999999989 65.430092000000002 13.000000000000000
0 0

0101101
*
Ed
 0.000000100000000 1 1 0
1  54 0 0.000000000000000 10.000000000000000
0

0101000
+33 53 -13 53 *
Ed
 0.000000100000000 1 1 0
1  55 0 0.000000000000000 77.828926000000010
0

0101000
+13 53 -27 53 *
Wi

0101100
-31 46 +12 52 +11 52 +24 52 *
Fa
0  0.000000100000000 24 52

0101000
+10 0 *
Ed
 0.000000100000000 1 1 0
1  56 0 0.000000000000000 2.000000000000000
0

0101000
+18 50 -13 50 *
Wi

0101100
+8 0 -26 0 -16 0 +11 51 *
Fa
0  0.000000100000000 25 0

0101000
+7 0 *
Wi

0101100
+21 37 -8 49 -17 49 +12 52 *
Fa
0  0.000000100000000 26 49

0101000
+5 0 *
Sh

0101100
+136 0 -129 0 +122 2 +117 0 -112 0 +107 0 -102 0 +95 0 +92 0 +89 0 
+75 0 -61 0 +54 4 +51 0 +46 4 +42 14 +39 14 +36 14 +34 14 -29 4 
+22 4 -19 4 +14 4 -9 4 +6 54 +4 4 *
So

0100000
+3 0 *
Co

1100000
+2 0 *

+1 1 