
CASCADE Topology V1, (c) Matra-Datavision
Locations 31
1
1.000000000000000 0.000000000000000 0.000000000000000 0.000000000000000 
0.000000000000000 1.000000000000000 0.000000000000000 0.000000000000000 
0.000000000000000 0.000000000000000 1.000000000000000 0.000000000000000 
1
1.000000000000000 0.000000000000000 0.000000000000000 0.000000000000000 
0.000000000000000 1.000000000000000 0.000000000000000 0.000000000000000 
0.000000000000000 0.000000000000000 1.000000000000000 0.000000000000000 
2  1 -1 2 -1 0
1
0.000000000000000 0.000000000000000 1.000000000000000 -14.739999999999993 
0.000000000000000 1.000000000000000 0.000000000000000 0.000000000000000 
-1.000000000000000 0.000000000000000 0.000000000000000 -8.739999999999995 
2  4 -1 1 -1 2 -1 0
1
0.000000000000000 0.000000000000000 1.000000000000000 -14.739999999999993 
0.000000000000000 1.000000000000000 0.000000000000000 0.000000000000000 
-1.000000000000000 0.000000000000000 0.000000000000000 -8.739999999999995 
2  6 -1 1 -1 2 -1 0
1
0.000000000000000 0.000000000000000 1.000000000000000 -14.739999999999993 
0.000000000000000 1.000000000000000 0.000000000000000 0.000000000000000 
-1.000000000000000 0.000000000000000 0.000000000000000 -8.739999999999995 
2  8 -1 1 -1 2 -1 0
1
1.000000000000000 0.000000000000000 0.000000000000000 0.000000000000000 
0.000000000000000 1.000000000000000 0.000000000000000 0.000000000000000 
0.000000000000000 0.000000000000000 1.000000000000000 0.000000000000000 
1
1.000000000000000 0.000000000000000 0.000000000000000 0.000000000000000 
0.000000000000000 1.000000000000000 0.000000000000000 0.000000000000000 
0.000000000000000 0.000000000000000 1.000000000000000 0.000000000000000 
2  10 1 11 -1 0
1
1.000000000000000 0.000000000000000 0.000000000000000 0.000000000000000 
0.000000000000000 1.000000000000000 0.000000000000000 0.000000000000000 
0.000000000000000 0.000000000000000 1.000000000000000 2.000000000000000 
2  10 1 11 -1 13 1 0
2  2 -1 0
1
0.000000000000000 0.000000000000000 -1.000000000000000 68.699999999999989 
0.000000000000000 1.000000000000000 0.000000000000000 0.000000000000000 
1.000000000000000 0.000000000000000 0.000000000000000 -62.700000000000003 
2  16 -1 2 -1 0
2  2 -1 11 1 10 -1 0
2  16 -1 2 -1 11 1 10 -1 0
2  2 -1 13 -1 11 1 10 -1 0
2  16 -1 2 -1 13 -1 11 1 10 -1 0
2  1 -1 2 -1 11 1 10 -1 0
2  4 -1 1 -1 2 -1 11 1 10 -1 0
2  1 -1 2 -1 13 -1 11 1 10 -1 0
2  4 -1 1 -1 2 -1 13 -1 11 1 10 -1 0
2  6 -1 1 -1 2 -1 11 1 10 -1 0
2  6 -1 1 -1 2 -1 13 -1 11 1 10 -1 0
2  8 -1 1 -1 2 -1 11 1 10 -1 0
2  8 -1 1 -1 2 -1 13 -1 11 1 10 -1 0
2  11 -1 0
2  11 -1 13 1 0
Curve2ds 32
1 3.00000000000000000 0.00000000000000000 -1.00000000000000000 0.00000000000000000 
1 0.00000000000000000 3.00000000000000000 -0.00000000000000011 -1.00000000000000000 
1 3.00000000000000000 0.00000000000000000 -1.00000000000000000 0.00000000000000000 
1 0.00000000000000000 3.00000000000000000 -0.00000000000000011 -1.00000000000000000 
1 3.00000000000000000 0.00000000000000000 -1.00000000000000000 0.00000000000000000 
1 0.00000000000000000 3.00000000000000000 -0.00000000000000011 -1.00000000000000000 
1 3.00000000000000000 0.00000000000000000 -1.00000000000000000 0.00000000000000000 
1 0.00000000000000000 3.00000000000000000 -0.00000000000000011 -1.00000000000000000 
1 3.00000000000000000 0.00000000000000000 -1.00000000000000000 0.00000000000000000 
1 0.00000000000000000 3.00000000000000000 -0.00000000000000011 -1.00000000000000000 
1 0.00000000000000000 0.00000000000000000 0.00000000000000000 1.00000000000000000 
1 1.57079632679489656 0.00000000000000000 0.00000000000000000 1.00000000000000000 
1 0.00000000000000000 0.00000000000000000 0.00000000000000000 1.00000000000000000 
1 1.57079632679489656 0.00000000000000000 0.00000000000000000 1.00000000000000000 
1 3.00000000000000000 0.00000000000000000 -1.00000000000000000 0.00000000000000000 
1 0.00000000000000000 3.00000000000000000 -0.00000000000000011 -1.00000000000000000 
1 3.00000000000000000 0.00000000000000000 -1.00000000000000000 0.00000000000000000 
1 0.00000000000000000 3.00000000000000000 -0.00000000000000011 -1.00000000000000000 
1 3.00000000000000000 0.00000000000000000 -1.00000000000000000 0.00000000000000000 
1 0.00000000000000000 3.00000000000000000 -0.00000000000000011 -1.00000000000000000 
1 0.00000000000000000 0.00000000000000000 0.00000000000000000 1.00000000000000000 
1 1.57079632679489656 0.00000000000000000 0.00000000000000000 1.00000000000000000 
1 0.00000000000000000 0.00000000000000000 0.00000000000000000 1.00000000000000000 
1 1.57079632679489656 0.00000000000000000 0.00000000000000000 1.00000000000000000 
1 0.00000000000000000 0.00000000000000000 0.00000000000000000 1.00000000000000000 
1 1.57079632679489656 0.00000000000000000 0.00000000000000000 1.00000000000000000 
1 0.00000000000000000 0.00000000000000000 0.00000000000000000 1.00000000000000000 
1 1.57079632679489656 0.00000000000000000 0.00000000000000000 1.00000000000000000 
1 0.00000000000000000 0.00000000000000000 0.00000000000000000 1.00000000000000000 
1 1.57079632679489656 0.00000000000000000 0.00000000000000000 1.00000000000000000 
1 0.00000000000000000 0.00000000000000000 0.00000000000000000 1.00000000000000000 
1 1.57079632679489656 0.00000000000000000 0.00000000000000000 1.00000000000000000 
Curves 16
1 -11.73999999999999488 65.43009200000000192 0.00000000000000000 0.00000000000000000 0.00000000000000000 1.00000000000000000 
1 65.70000000000000284 65.43009200000000192 0.00000000000000000 0.00000000000000000 0.00000000000000000 1.00000000000000000 
1 -11.73999999999999488 65.43009200000000192 0.00000000000000000 1.00000000000000000 0.00000000000000000 0.00000000000000000 
1 65.70000000000000284 -12.39883400000000790 0.00000000000000000 0.00000000000000000 0.00000000000000000 1.00000000000000000 
1 65.70000000000000284 65.43009200000000192 0.00000000000000000 0.00000000000000000 -1.00000000000000000 0.00000000000000000 
1 -11.73999999999999488 -12.39883400000000790 0.00000000000000000 0.00000000000000000 0.00000000000000000 1.00000000000000000 
1 65.70000000000000284 -12.39883400000000790 0.00000000000000000 -1.00000000000000000 0.00000000000000000 0.00000000000000000 
1 -11.73999999999999488 -12.39883400000000790 0.00000000000000000 0.00000000000000000 1.00000000000000000 0.00000000000000000 
1 20.30599000000000132 3.08436500000000180 0.00000000000000000 0.00000000000000000 0.00000000000000000 1.00000000000000000 
1 33.35115299999999650 3.08436500000000180 0.00000000000000000 0.00000000000000000 0.00000000000000000 1.00000000000000000 
1 20.30599000000000132 3.08436500000000180 0.00000000000000000 1.00000000000000000 0.00000000000000000 0.00000000000000000 
1 33.35115299999999650 22.65211499999999489 0.00000000000000000 0.00000000000000000 0.00000000000000000 1.00000000000000000 
1 33.35115299999999650 3.08436500000000180 0.00000000000000000 0.00000000000000000 1.00000000000000000 0.00000000000000000 
1 20.30599000000000132 22.65211499999999489 0.00000000000000000 0.00000000000000000 0.00000000000000000 1.00000000000000000 
1 33.35115299999999650 22.65211499999999489 0.00000000000000000 -1.00000000000000000 0.00000000000000000 0.00000000000000000 
1 20.30599000000000132 22.65211499999999489 0.00000000000000000 0.00000000000000000 -1.00000000000000000 0.00000000000000000 
Polygon3D 0
PolygonOnTriangulations 0
Surfaces 25
1 -11.73999999999999488 65.43009200000000192 0.00000000000000000 0.00000000000000000 1.00000000000000000 0.00000000000000000 1.00000000000000000 0.00000000000000000 0.00000000000000000 0.00000000000000000 0.00000000000000000 -1.00000000000000000 
1 -11.73999999999999488 65.43009200000000192 3.00000000000000000 0.00000000000000000 1.00000000000000000 0.00000000000000000 0.00000000000000000 0.00000000000000000 -1.00000000000000000 -1.00000000000000000 0.00000000000000000 0.00000000000000000 
1 -11.73999999999999488 65.43009200000000192 3.00000000000000000 0.00000000000000000 1.00000000000000000 0.00000000000000000 0.00000000000000000 0.00000000000000000 -1.00000000000000000 -1.00000000000000000 0.00000000000000000 0.00000000000000000 
1 -11.73999999999999488 65.43009200000000192 3.00000000000000000 0.00000000000000000 1.00000000000000000 0.00000000000000000 0.00000000000000000 0.00000000000000000 -1.00000000000000000 -1.00000000000000000 0.00000000000000000 0.00000000000000000 
1 65.70000000000000284 65.43009200000000192 3.00000000000000000 0.00000000000000000 -1.00000000000000000 0.00000000000000000 0.00000000000000000 0.00000000000000000 -1.00000000000000000 1.00000000000000000 0.00000000000000000 0.00000000000000000 
1 65.70000000000000284 65.43009200000000192 0.00000000000000000 1.00000000000000000 0.00000000000000000 -0.00000000000000000 0.00000000000000000 -1.00000000000000000 0.00000000000000000 0.00000000000000000 -0.00000000000000000 -1.00000000000000000 
1 65.70000000000000284 -12.39883400000000790 3.00000000000000000 0.00000000000000000 -1.00000000000000000 0.00000000000000000 0.00000000000000000 0.00000000000000000 -1.00000000000000000 1.00000000000000000 0.00000000000000000 0.00000000000000000 
2 65.70000000000000284 65.43009200000000192 3.00000000000000000 0.00000000000000000 -1.00000000000000000 0.00000000000000000 0.00000000000000000 0.00000000000000000 -1.00000000000000000 1.00000000000000000 0.00000000000000000 0.00000000000000000 3.00000000000000000
2 65.70000000000000284 65.43009200000000192 3.00000000000000000 0.00000000000000000 -1.00000000000000000 0.00000000000000000 0.00000000000000000 0.00000000000000000 -1.00000000000000000 1.00000000000000000 0.00000000000000000 0.00000000000000000 1.00000000000000000
1 65.70000000000000284 -12.39883400000000790 0.00000000000000000 0.00000000000000000 -1.00000000000000000 0.00000000000000000 -1.00000000000000000 0.00000000000000000 0.00000000000000000 -0.00000000000000000 -0.00000000000000000 -1.00000000000000000 
1 -11.73999999999999488 -12.39883400000000790 3.00000000000000000 0.00000000000000000 1.00000000000000000 0.00000000000000000 0.00000000000000000 0.00000000000000000 -1.00000000000000000 -1.00000000000000000 0.00000000000000000 0.00000000000000000 
1 -11.73999999999999488 -12.39883400000000790 3.00000000000000000 0.00000000000000000 1.00000000000000000 0.00000000000000000 0.00000000000000000 0.00000000000000000 -1.00000000000000000 -1.00000000000000000 0.00000000000000000 0.00000000000000000 
1 -11.73999999999999488 -12.39883400000000790 3.00000000000000000 0.00000000000000000 1.00000000000000000 0.00000000000000000 0.00000000000000000 0.00000000000000000 -1.00000000000000000 -1.00000000000000000 0.00000000000000000 0.00000000000000000 
1 -11.73999999999999488 -12.39883400000000790 0.00000000000000000 -1.00000000000000000 0.00000000000000000 0.00000000000000000 0.00000000000000000 1.00000000000000000 0.00000000000000000 0.00000000000000000 0.00000000000000000 -1.00000000000000000 
2 -11.73999999999999488 -12.39883400000000790 3.00000000000000000 0.00000000000000000 1.00000000000000000 0.00000000000000000 0.00000000000000000 0.00000000000000000 -1.00000000000000000 -1.00000000000000000 0.00000000000000000 0.00000000000000000 3.00000000000000000
2 -11.73999999999999488 -12.39883400000000790 3.00000000000000000 0.00000000000000000 1.00000000000000000 0.00000000000000000 0.00000000000000000 0.00000000000000000 -1.00000000000000000 -1.00000000000000000 0.00000000000000000 0.00000000000000000 1.00000000000000000
2 -11.73999999999999488 -12.39883400000000790 3.00000000000000000 0.00000000000000000 1.00000000000000000 0.00000000000000000 0.00000000000000000 0.00000000000000000 -1.00000000000000000 -1.00000000000000000 0.00000000000000000 0.00000000000000000 3.00000000000000000
2 -11.73999999999999488 -12.39883400000000790 3.00000000000000000 0.00000000000000000 1.00000000000000000 0.00000000000000000 0.00000000000000000 0.00000000000000000 -1.00000000000000000 -1.00000000000000000 0.00000000000000000 0.00000000000000000 1.00000000000000000
2 -11.73999999999999488 -12.39883400000000790 3.00000000000000000 0.00000000000000000 1.00000000000000000 0.00000000000000000 0.00000000000000000 0.00000000000000000 -1.00000000000000000 -1.00000000000000000 0.00000000000000000 0.00000000000000000 3.00000000000000000
2 -11.73999999999999488 -12.39883400000000790 3.00000000000000000 0.00000000000000000 1.00000000000000000 0.00000000000000000 0.00000000000000000 0.00000000000000000 -1.00000000000000000 -1.00000000000000000 0.00000000000000000 0.00000000000000000 1.00000000000000000
1 20.30599000000000132 3.08436500000000180 0.00000000000000000 0.00000000000000000 1.00000000000000000 0.00000000000000000 1.00000000000000000 0.00000000000000000 0.00000000000000000 0.00000000000000000 0.00000000000000000 -1.00000000000000000 
1 33.35115299999999650 3.08436500000000180 0.00000000000000000 -1.00000000000000000 0.00000000000000000 0.00000000000000000 0.00000000000000000 1.00000000000000000 0.00000000000000000 0.00000000000000000 0.00000000000000000 -1.00000000000000000 
1 33.35115299999999650 22.65211499999999489 0.00000000000000000 0.00000000000000000 -1.00000000000000000 0.00000000000000000 -1.00000000000000000 0.00000000000000000 0.00000000000000000 -0.00000000000000000 -0.00000000000000000 -1.00000000000000000 
1 20.30599000000000132 22.65211499999999489 0.00000000000000000 1.00000000000000000 0.00000000000000000 -0.00000000000000000 0.00000000000000000 -1.00000000000000000 0.00000000000000000 0.00000000000000000 -0.00000000000000000 -1.00000000000000000 
1 26.98000000000000398 26.51562899999999701 0.00000000000000000 -0.00000000000000000 -0.00000000000000000 -1.00000000000000000 -1.00000000000000000 0.00000000000000000 0.00000000000000000 0.00000000000000000 1.00000000000000000 -0.00000000000000000 
Triangulations 0

TShapes 45
Ve
0.000000100000000
-11.739999999999995 65.430092000000002 0.000000000000000
0 0

0101101
*
Ed
 0.000000100000000 1 1 0
1  1 0 0.000000000000000 2.000000000000000
2  1 2 3 0.000000000000000 2.000000000000000
2  2 2 5 0.000000000000000 2.000000000000000
2  3 3 3 0.000000000000000 2.000000000000000
2  4 3 7 0.000000000000000 2.000000000000000
2  5 4 3 0.000000000000000 2.000000000000000
2  6 4 9 0.000000000000000 2.000000000000000
0

0101000
+45 12 -45 14 *
Ve
0.000000100000000
65.700000000000003 65.430092000000002 0.000000000000000
0 0

0101101
*
Ed
 0.000000100000000 1 1 0
1  2 0 0.000000000000000 2.000000000000000
2  7 5 15 0.000000000000000 2.000000000000000
2  8 5 17 0.000000000000000 2.000000000000000
0

0101000
+43 12 -43 14 *
Ed
 0.000000100000000 1 1 0
1  3 0 0.000000000000000 77.439999999999998
0

0101000
+45 0 -43 0 *
Wi

0101100
+44 0 -42 0 -41 12 +41 14 *
Fa
0  0.000000100000000 1 0

0111000
+40 0 *
Ve
0.000000100000000
65.700000000000003 -12.398834000000008 0.000000000000000
0 0

0101101
*
Ed
 0.000000100000000 1 1 0
1  4 0 0.000000000000000 2.000000000000000
2  9 7 15 0.000000000000000 2.000000000000000
2  10 7 17 0.000000000000000 2.000000000000000
0

0101000
+38 12 -38 14 *
Ed
 0.000000100000000 1 1 0
1  5 0 0.000000000000000 77.828926000000010
2  11 8 18 0.000000000000000 77.828926000000010
2  12 8 19 0.000000000000000 77.828926000000010
2  13 9 20 0.000000000000000 77.828926000000010
2  14 9 21 0.000000000000000 77.828926000000010
0

0101000
+43 0 -38 0 *
Wi

0101100
+42 0 -37 0 -36 12 +36 14 *
Fa
0  0.000000100000000 6 0

0111000
+35 0 *
Ve
0.000000100000000
-11.739999999999995 -12.398834000000008 0.000000000000000
0 0

0101101
*
Ed
 0.000000100000000 1 1 0
1  6 0 0.000000000000000 2.000000000000000
2  15 11 3 0.000000000000000 2.000000000000000
2  16 11 5 0.000000000000000 2.000000000000000
2  17 12 3 0.000000000000000 2.000000000000000
2  18 12 7 0.000000000000000 2.000000000000000
2  19 13 3 0.000000000000000 2.000000000000000
2  20 13 9 0.000000000000000 2.000000000000000
0

0101000
+33 12 -33 14 *
Ed
 0.000000100000000 1 1 0
1  7 0 0.000000000000000 77.439999999999998
0

0101000
+38 0 -33 0 *
Wi

0101100
+37 0 -32 0 -31 12 +31 14 *
Fa
0  0.000000100000000 10 0

0111000
+30 0 *
Ed
 0.000000100000000 1 1 0
1  8 0 0.000000000000000 77.828926000000010
2  21 15 22 0.000000000000000 77.828926000000010
2  22 15 23 0.000000000000000 77.828926000000010
2  23 16 24 0.000000000000000 77.828926000000010
2  24 16 25 0.000000000000000 77.828926000000010
2  25 17 22 0.000000000000000 77.828926000000010
2  26 17 26 0.000000000000000 77.828926000000010
2  27 18 24 0.000000000000000 77.828926000000010
2  28 18 27 0.000000000000000 77.828926000000010
2  29 19 22 0.000000000000000 77.828926000000010
2  30 19 28 0.000000000000000 77.828926000000010
2  31 20 24 0.000000000000000 77.828926000000010
2  32 20 29 0.000000000000000 77.828926000000010
0

0101000
+33 0 -45 0 *
Wi

0101100
+32 0 -44 0 -28 12 +28 14 *
Fa
0  0.000000100000000 14 0

0111000
+27 0 *
Ve
0.000000100000000
20.305990000000001 3.084365000000002 0.000000000000000
0 0

0101101
*
Ed
 0.000000100000000 1 1 0
1  9 0 0.000000000000000 2.000000000000000
0

0101000
+25 12 -25 14 *
Ve
0.000000100000000
33.351152999999996 3.084365000000002 0.000000000000000
0 0

0101101
*
Ed
 0.000000100000000 1 1 0
1  10 0 0.000000000000000 2.000000000000000
0

0101000
+23 12 -23 14 *
Ed
 0.000000100000000 1 1 0
1  11 0 0.000000000000000 13.045162999999995
0

0101000
+25 0 -23 0 *
Wi

0101100
+24 0 -22 0 -21 12 +21 14 *
Fa
0  0.000000100000000 21 0

0111000
+20 0 *
Ve
0.000000100000000
33.351152999999996 22.652114999999995 0.000000000000000
0 0

0101101
*
Ed
 0.000000100000000 1 1 0
1  12 0 0.000000000000000 2.000000000000000
0

0101000
+18 12 -18 14 *
Ed
 0.000000100000000 1 1 0
1  13 0 0.000000000000000 19.567749999999993
0

0101000
+23 0 -18 0 *
Wi

0101100
+22 0 -17 0 -16 12 +16 14 *
Fa
0  0.000000100000000 22 0

0111000
+15 0 *
Ve
0.000000100000000
20.305990000000001 22.652114999999995 0.000000000000000
0 0

0101101
*
Ed
 0.000000100000000 1 1 0
1  14 0 0.000000000000000 2.000000000000000
0

0101000
+13 12 -13 14 *
Ed
 0.000000100000000 1 1 0
1  15 0 0.000000000000000 13.045162999999995
0

0101000
+18 0 -13 0 *
Wi

0101100
+17 0 -12 0 -11 12 +11 14 *
Fa
0  0.000000100000000 23 0

0111000
+10 0 *
Ed
 0.000000100000000 1 1 0
1  16 0 0.000000000000000 19.567749999999993
0

0101000
+13 0 -25 0 *
Wi

0101100
+12 0 -24 0 -8 12 +8 14 *
Fa
0  0.000000100000000 24 0

0111000
+7 0 *
Wi

0101100
+41 10 +36 10 +31 10 +28 10 *
Wi

0101100
+21 10 +16 10 +11 10 +8 10 *
Fa
0  0.000000100000000 25 0

0111000
+5 0 +4 0 *
Sh

0101100
+39 0 +34 0 +29 0 +26 0 +19 0 +14 0 +9 0 +6 0 +3 30 -3 31 
*
So

1100000
+2 0 *

+1 0 