
CASCADE Topology V1, (c) Matra-Datavision
Locations 45
1
1.000000000000000 0.000000000000000 0.000000000000000 0.000000000000000 
0.000000000000000 1.000000000000000 0.000000000000000 0.000000000000000 
0.000000000000000 0.000000000000000 1.000000000000000 0.000000000000000 
1
0.000000000000000 0.000000000000000 -1.000000000000000 68.699999999999989 
0.000000000000000 1.000000000000000 0.000000000000000 0.000000000000000 
1.000000000000000 0.000000000000000 0.000000000000000 -62.700000000000003 
1
1.000000000000000 0.000000000000000 0.000000000000000 0.000000000000000 
0.000000000000000 1.000000000000000 0.000000000000000 0.000000000000000 
0.000000000000000 0.000000000000000 1.000000000000000 0.000000000000000 
1
0.000000000000000 0.000000000000000 -1.000000000000000 68.699999999999989 
0.000000000000000 1.000000000000000 0.000000000000000 0.000000000000000 
1.000000000000000 0.000000000000000 0.000000000000000 -62.700000000000003 
2  3 1 4 1 0
2  3 -1 0
2  4 -1 3 -1 0
1
1.000000000000000 0.000000000000000 0.000000000000000 0.000000000000000 
0.000000000000000 1.000000000000000 0.000000000000000 0.000000000000000 
0.000000000000000 0.000000000000000 1.000000000000000 2.000000000000000 
2  2 -1 0
2  8 1 2 1 0
2  2 -1 8 -1 0
1
1.000000000000000 0.000000000000000 0.000000000000000 0.000000000000000 
0.000000000000000 1.000000000000000 0.000000000000000 0.000000000000000 
0.000000000000000 0.000000000000000 1.000000000000000 0.000000000000000 
1
1.000000000000000 0.000000000000000 0.000000000000000 0.000000000000000 
0.000000000000000 1.000000000000000 0.000000000000000 0.000000000000000 
0.000000000000000 0.000000000000000 1.000000000000000 0.000000000000000 
2  12 1 13 -1 3 1 4 1 0
2  3 -1 13 1 12 -1 0
2  4 -1 3 -1 13 1 12 -1 0
1
1.000000000000000 0.000000000000000 0.000000000000000 0.000000000000000 
0.000000000000000 1.000000000000000 0.000000000000000 0.000000000000000 
0.000000000000000 0.000000000000000 1.000000000000000 2.000000000000000 
2  3 -1 17 -1 13 1 12 -1 0
2  4 -1 3 -1 17 -1 13 1 12 -1 0
2  12 1 13 -1 17 1 3 1 4 1 0
2  12 1 13 -1 3 1 0
2  12 1 13 -1 17 1 3 1 0
2  1 -1 3 -1 0
1
0.000000000000000 0.000000000000000 1.000000000000000 -14.739999999999993 
0.000000000000000 1.000000000000000 0.000000000000000 0.000000000000000 
-1.000000000000000 0.000000000000000 0.000000000000000 -8.739999999999995 
2  24 -1 1 -1 3 -1 0
1
0.000000000000000 0.000000000000000 1.000000000000000 -14.739999999999993 
0.000000000000000 1.000000000000000 0.000000000000000 0.000000000000000 
-1.000000000000000 0.000000000000000 0.000000000000000 -8.739999999999995 
2  26 -1 1 -1 3 -1 0
1
0.000000000000000 0.000000000000000 1.000000000000000 -14.739999999999993 
0.000000000000000 1.000000000000000 0.000000000000000 0.000000000000000 
-1.000000000000000 0.000000000000000 0.000000000000000 -8.739999999999995 
2  28 -1 1 -1 3 -1 0
1
0.000000000000000 0.000000000000000 1.000000000000000 -14.739999999999993 
0.000000000000000 1.000000000000000 0.000000000000000 0.000000000000000 
-1.000000000000000 0.000000000000000 0.000000000000000 -8.739999999999995 
2  30 -1 1 -1 3 -1 0
2  12 1 13 -1 0
2  12 1 13 -1 17 1 0
2  13 -1 3 1 0
2  1 -1 3 -1 13 1 12 -1 0
2  24 -1 1 -1 3 -1 13 1 12 -1 0
2  1 -1 3 -1 17 -1 13 1 12 -1 0
2  24 -1 1 -1 3 -1 17 -1 13 1 12 -1 0
2  26 -1 1 -1 3 -1 13 1 12 -1 0
2  26 -1 1 -1 3 -1 17 -1 13 1 12 -1 0
2  28 -1 1 -1 3 -1 13 1 12 -1 0
2  28 -1 1 -1 3 -1 17 -1 13 1 12 -1 0
2  30 -1 1 -1 3 -1 13 1 12 -1 0
2  30 -1 1 -1 3 -1 17 -1 13 1 12 -1 0
2  13 -1 17 1 3 1 0
Curve2ds 48
1 3.00000000000000000 0.00000000000000000 -1.00000000000000000 0.00000000000000000 
1 0.00000000000000000 3.00000000000000000 -0.00000000000000011 -1.00000000000000000 
2 0.00000000000000000 0.00000000000000000 1.00000000000000000 0.00000000000000000 -0.00000000000000000 1.00000000000000000 3.00000000000000000
1 0.00000000000000000 0.00000000000000000 1.00000000000000000 0.00000000000000000 
2 0.00000000000000000 0.00000000000000000 1.00000000000000000 0.00000000000000000 -0.00000000000000000 1.00000000000000000 1.00000000000000000
1 0.00000000000000000 0.00000000000000000 1.00000000000000000 0.00000000000000000 
1 0.00000000000000000 0.00000000000000000 0.00000000000000000 1.00000000000000000 
1 1.57079632679489656 0.00000000000000000 0.00000000000000000 1.00000000000000000 
1 0.00000000000000000 0.00000000000000000 0.00000000000000000 1.00000000000000000 
1 1.57079632679489656 0.00000000000000000 0.00000000000000000 1.00000000000000000 
2 0.00000000000000000 0.00000000000000000 1.00000000000000000 0.00000000000000000 -0.00000000000000000 1.00000000000000000 3.00000000000000000
1 0.00000000000000000 77.82892600000000982 1.00000000000000000 0.00000000000000000 
2 0.00000000000000000 0.00000000000000000 1.00000000000000000 0.00000000000000000 -0.00000000000000000 1.00000000000000000 1.00000000000000000
1 0.00000000000000000 77.82892600000000982 1.00000000000000000 0.00000000000000000 
1 3.00000000000000000 0.00000000000000000 -1.00000000000000000 0.00000000000000000 
1 0.00000000000000000 3.00000000000000000 -0.00000000000000011 -1.00000000000000000 
1 3.00000000000000000 0.00000000000000000 -1.00000000000000000 0.00000000000000000 
1 0.00000000000000000 3.00000000000000000 -0.00000000000000011 -1.00000000000000000 
1 3.00000000000000000 0.00000000000000000 -1.00000000000000000 0.00000000000000000 
1 0.00000000000000000 3.00000000000000000 -0.00000000000000011 -1.00000000000000000 
1 3.00000000000000000 0.00000000000000000 -1.00000000000000000 0.00000000000000000 
1 0.00000000000000000 3.00000000000000000 -0.00000000000000011 -1.00000000000000000 
1 3.00000000000000000 0.00000000000000000 -1.00000000000000000 0.00000000000000000 
1 0.00000000000000000 3.00000000000000000 -0.00000000000000011 -1.00000000000000000 
1 0.00000000000000000 0.00000000000000000 0.00000000000000000 1.00000000000000000 
1 1.57079632679489656 0.00000000000000000 0.00000000000000000 1.00000000000000000 
1 0.00000000000000000 0.00000000000000000 0.00000000000000000 1.00000000000000000 
1 1.57079632679489656 0.00000000000000000 0.00000000000000000 1.00000000000000000 
1 0.00000000000000000 0.00000000000000000 0.00000000000000000 1.00000000000000000 
1 1.57079632679489656 0.00000000000000000 0.00000000000000000 1.00000000000000000 
1 0.00000000000000000 0.00000000000000000 0.00000000000000000 1.00000000000000000 
1 1.57079632679489656 0.00000000000000000 0.00000000000000000 1.00000000000000000 
1 0.00000000000000000 0.00000000000000000 0.00000000000000000 1.00000000000000000 
1 1.57079632679489656 0.00000000000000000 0.00000000000000000 1.00000000000000000 
1 0.00000000000000000 0.00000000000000000 0.00000000000000000 1.00000000000000000 
1 1.57079632679489656 0.00000000000000000 0.00000000000000000 1.00000000000000000 
1 0.00000000000000000 0.00000000000000000 0.00000000000000000 1.00000000000000000 
1 1.57079632679489656 0.00000000000000000 0.00000000000000000 1.00000000000000000 
1 0.00000000000000000 0.00000000000000000 0.00000000000000000 1.00000000000000000 
1 1.57079632679489656 0.00000000000000000 0.00000000000000000 1.00000000000000000 
1 3.00000000000000000 0.00000000000000000 -1.00000000000000000 0.00000000000000000 
1 0.00000000000000000 3.00000000000000000 -0.00000000000000011 -1.00000000000000000 
1 3.00000000000000000 0.00000000000000000 -1.00000000000000000 0.00000000000000000 
1 0.00000000000000000 3.00000000000000000 -0.00000000000000011 -1.00000000000000000 
1 3.00000000000000000 0.00000000000000000 -1.00000000000000000 0.00000000000000000 
1 0.00000000000000000 3.00000000000000000 -0.00000000000000011 -1.00000000000000000 
1 3.00000000000000000 0.00000000000000000 -1.00000000000000000 0.00000000000000000 
1 0.00000000000000000 3.00000000000000000 -0.00000000000000011 -1.00000000000000000 
Curves 25
1 65.70000000000000284 65.43009200000000192 0.00000000000000000 0.00000000000000000 0.00000000000000000 1.00000000000000000 
1 75.70000000000000284 65.43009200000000192 0.00000000000000000 0.00000000000000000 0.00000000000000000 1.00000000000000000 
1 65.70000000000000284 65.43009200000000192 0.00000000000000000 1.00000000000000000 0.00000000000000000 0.00000000000000000 
2 65.70000000000000284 65.43009200000000192 3.00000000000000000 0.00000000000000000 -1.00000000000000000 0.00000000000000000 0.00000000000000000 0.00000000000000000 -1.00000000000000000 1.00000000000000000 0.00000000000000000 0.00000000000000000 3.00000000000000000
2 65.70000000000000284 65.43009200000000192 3.00000000000000000 0.00000000000000000 -1.00000000000000000 0.00000000000000000 0.00000000000000000 0.00000000000000000 -1.00000000000000000 1.00000000000000000 0.00000000000000000 0.00000000000000000 1.00000000000000000
1 75.70000000000000284 -12.39883400000000790 0.00000000000000000 0.00000000000000000 0.00000000000000000 1.00000000000000000 
1 75.70000000000000284 65.43009200000000192 0.00000000000000000 0.00000000000000000 -1.00000000000000000 0.00000000000000000 
1 65.70000000000000284 65.43009200000000192 0.00000000000000000 0.00000000000000000 -1.00000000000000000 0.00000000000000000 
1 75.70000000000000284 -12.39883400000000790 0.00000000000000000 -1.00000000000000000 0.00000000000000000 0.00000000000000000 
2 65.70000000000000284 -12.39883400000000790 3.00000000000000000 0.00000000000000000 -1.00000000000000000 0.00000000000000000 0.00000000000000000 0.00000000000000000 -1.00000000000000000 1.00000000000000000 0.00000000000000000 0.00000000000000000 3.00000000000000000
2 65.70000000000000284 -12.39883400000000790 3.00000000000000000 0.00000000000000000 -1.00000000000000000 0.00000000000000000 0.00000000000000000 0.00000000000000000 -1.00000000000000000 1.00000000000000000 0.00000000000000000 0.00000000000000000 1.00000000000000000
1 -11.73999999999999488 65.43009200000000192 0.00000000000000000 0.00000000000000000 0.00000000000000000 1.00000000000000000 
1 -11.73999999999999488 65.43009200000000192 0.00000000000000000 1.00000000000000000 0.00000000000000000 0.00000000000000000 
1 65.70000000000000284 -12.39883400000000790 0.00000000000000000 0.00000000000000000 0.00000000000000000 1.00000000000000000 
1 65.70000000000000284 -12.39883400000000790 0.00000000000000000 -1.00000000000000000 0.00000000000000000 0.00000000000000000 
1 -11.73999999999999488 -12.39883400000000790 0.00000000000000000 0.00000000000000000 1.00000000000000000 0.00000000000000000 
1 20.30599000000000132 3.08436500000000180 0.00000000000000000 1.00000000000000000 0.00000000000000000 0.00000000000000000 
1 33.35115299999999650 3.08436500000000180 0.00000000000000000 0.00000000000000000 1.00000000000000000 0.00000000000000000 
1 33.35115299999999650 22.65211499999999489 0.00000000000000000 -1.00000000000000000 0.00000000000000000 0.00000000000000000 
1 20.30599000000000132 22.65211499999999489 0.00000000000000000 0.00000000000000000 -1.00000000000000000 0.00000000000000000 
1 -11.73999999999999488 -12.39883400000000790 0.00000000000000000 0.00000000000000000 0.00000000000000000 1.00000000000000000 
1 20.30599000000000132 3.08436500000000180 0.00000000000000000 0.00000000000000000 0.00000000000000000 1.00000000000000000 
1 33.35115299999999650 3.08436500000000180 0.00000000000000000 0.00000000000000000 0.00000000000000000 1.00000000000000000 
1 33.35115299999999650 22.65211499999999489 0.00000000000000000 0.00000000000000000 0.00000000000000000 1.00000000000000000 
1 20.30599000000000132 22.65211499999999489 0.00000000000000000 0.00000000000000000 0.00000000000000000 1.00000000000000000 
Polygon3D 0
PolygonOnTriangulations 0
Surfaces 32
1 65.70000000000000284 65.43009200000000192 0.00000000000000000 0.00000000000000000 1.00000000000000000 0.00000000000000000 1.00000000000000000 0.00000000000000000 0.00000000000000000 0.00000000000000000 0.00000000000000000 -1.00000000000000000 
1 65.70000000000000284 65.43009200000000192 3.00000000000000000 0.00000000000000000 -1.00000000000000000 0.00000000000000000 0.00000000000000000 0.00000000000000000 -1.00000000000000000 1.00000000000000000 0.00000000000000000 0.00000000000000000 
2 65.70000000000000284 65.43009200000000192 3.00000000000000000 0.00000000000000000 -1.00000000000000000 0.00000000000000000 0.00000000000000000 0.00000000000000000 -1.00000000000000000 1.00000000000000000 0.00000000000000000 0.00000000000000000 3.00000000000000000
2 65.70000000000000284 65.43009200000000192 3.00000000000000000 0.00000000000000000 -1.00000000000000000 0.00000000000000000 0.00000000000000000 0.00000000000000000 -1.00000000000000000 1.00000000000000000 0.00000000000000000 0.00000000000000000 1.00000000000000000
1 75.70000000000000284 65.43009200000000192 0.00000000000000000 1.00000000000000000 0.00000000000000000 -0.00000000000000000 0.00000000000000000 -1.00000000000000000 0.00000000000000000 0.00000000000000000 -0.00000000000000000 -1.00000000000000000 
1 70.70000000000001705 26.51562899999999345 0.00000000000000000 -0.00000000000000000 -0.00000000000000000 -1.00000000000000000 -1.00000000000000000 0.00000000000000000 0.00000000000000000 0.00000000000000000 1.00000000000000000 -0.00000000000000000 
1 65.70000000000000284 -12.39883400000000790 3.00000000000000000 0.00000000000000000 -1.00000000000000000 0.00000000000000000 0.00000000000000000 0.00000000000000000 -1.00000000000000000 1.00000000000000000 0.00000000000000000 0.00000000000000000 
1 -11.73999999999999488 65.43009200000000192 0.00000000000000000 0.00000000000000000 1.00000000000000000 0.00000000000000000 1.00000000000000000 0.00000000000000000 0.00000000000000000 0.00000000000000000 0.00000000000000000 -1.00000000000000000 
1 -11.73999999999999488 65.43009200000000192 3.00000000000000000 0.00000000000000000 1.00000000000000000 0.00000000000000000 0.00000000000000000 0.00000000000000000 -1.00000000000000000 -1.00000000000000000 0.00000000000000000 0.00000000000000000 
1 -11.73999999999999488 65.43009200000000192 3.00000000000000000 0.00000000000000000 1.00000000000000000 0.00000000000000000 0.00000000000000000 0.00000000000000000 -1.00000000000000000 -1.00000000000000000 0.00000000000000000 0.00000000000000000 
1 -11.73999999999999488 65.43009200000000192 3.00000000000000000 0.00000000000000000 1.00000000000000000 0.00000000000000000 0.00000000000000000 0.00000000000000000 -1.00000000000000000 -1.00000000000000000 0.00000000000000000 0.00000000000000000 
1 -11.73999999999999488 65.43009200000000192 3.00000000000000000 0.00000000000000000 1.00000000000000000 0.00000000000000000 0.00000000000000000 0.00000000000000000 -1.00000000000000000 -1.00000000000000000 0.00000000000000000 0.00000000000000000 
1 75.70000000000000284 -12.39883400000000790 0.00000000000000000 0.00000000000000000 -1.00000000000000000 0.00000000000000000 -1.00000000000000000 0.00000000000000000 0.00000000000000000 -0.00000000000000000 -0.00000000000000000 -1.00000000000000000 
1 26.98000000000000398 26.51562899999999701 0.00000000000000000 -0.00000000000000000 -0.00000000000000000 -1.00000000000000000 -1.00000000000000000 0.00000000000000000 0.00000000000000000 0.00000000000000000 1.00000000000000000 -0.00000000000000000 
2 -11.73999999999999488 -12.39883400000000790 3.00000000000000000 0.00000000000000000 1.00000000000000000 0.00000000000000000 0.00000000000000000 0.00000000000000000 -1.00000000000000000 -1.00000000000000000 0.00000000000000000 0.00000000000000000 3.00000000000000000
2 -11.73999999999999488 -12.39883400000000790 3.00000000000000000 0.00000000000000000 1.00000000000000000 0.00000000000000000 0.00000000000000000 0.00000000000000000 -1.00000000000000000 -1.00000000000000000 0.00000000000000000 0.00000000000000000 1.00000000000000000
2 -11.73999999999999488 -12.39883400000000790 3.00000000000000000 0.00000000000000000 1.00000000000000000 0.00000000000000000 0.00000000000000000 0.00000000000000000 -1.00000000000000000 -1.00000000000000000 0.00000000000000000 0.00000000000000000 3.00000000000000000
2 -11.73999999999999488 -12.39883400000000790 3.00000000000000000 0.00000000000000000 1.00000000000000000 0.00000000000000000 0.00000000000000000 0.00000000000000000 -1.00000000000000000 -1.00000000000000000 0.00000000000000000 0.00000000000000000 1.00000000000000000
2 -11.73999999999999488 -12.39883400000000790 3.00000000000000000 0.00000000000000000 1.00000000000000000 0.00000000000000000 0.00000000000000000 0.00000000000000000 -1.00000000000000000 -1.00000000000000000 0.00000000000000000 0.00000000000000000 3.00000000000000000
2 -11.73999999999999488 -12.39883400000000790 3.00000000000000000 0.00000000000000000 1.00000000000000000 0.00000000000000000 0.00000000000000000 0.00000000000000000 -1.00000000000000000 -1.00000000000000000 0.00000000000000000 0.00000000000000000 1.00000000000000000
2 -11.73999999999999488 -12.39883400000000790 3.00000000000000000 0.00000000000000000 1.00000000000000000 0.00000000000000000 0.00000000000000000 0.00000000000000000 -1.00000000000000000 -1.00000000000000000 0.00000000000000000 0.00000000000000000 3.00000000000000000
2 -11.73999999999999488 -12.39883400000000790 3.00000000000000000 0.00000000000000000 1.00000000000000000 0.00000000000000000 0.00000000000000000 0.00000000000000000 -1.00000000000000000 -1.00000000000000000 0.00000000000000000 0.00000000000000000 1.00000000000000000
1 -11.73999999999999488 -12.39883400000000790 0.00000000000000000 -1.00000000000000000 0.00000000000000000 0.00000000000000000 0.00000000000000000 1.00000000000000000 0.00000000000000000 0.00000000000000000 0.00000000000000000 -1.00000000000000000 
1 -11.73999999999999488 -12.39883400000000790 3.00000000000000000 0.00000000000000000 1.00000000000000000 0.00000000000000000 0.00000000000000000 0.00000000000000000 -1.00000000000000000 -1.00000000000000000 0.00000000000000000 0.00000000000000000 
1 -11.73999999999999488 -12.39883400000000790 3.00000000000000000 0.00000000000000000 1.00000000000000000 0.00000000000000000 0.00000000000000000 0.00000000000000000 -1.00000000000000000 -1.00000000000000000 0.00000000000000000 0.00000000000000000 
1 -11.73999999999999488 -12.39883400000000790 3.00000000000000000 0.00000000000000000 1.00000000000000000 0.00000000000000000 0.00000000000000000 0.00000000000000000 -1.00000000000000000 -1.00000000000000000 0.00000000000000000 0.00000000000000000 
1 -11.73999999999999488 -12.39883400000000790 3.00000000000000000 0.00000000000000000 1.00000000000000000 0.00000000000000000 0.00000000000000000 0.00000000000000000 -1.00000000000000000 -1.00000000000000000 0.00000000000000000 0.00000000000000000 
1 65.70000000000000284 -12.39883400000000790 0.00000000000000000 0.00000000000000000 -1.00000000000000000 0.00000000000000000 -1.00000000000000000 0.00000000000000000 0.00000000000000000 -0.00000000000000000 -0.00000000000000000 -1.00000000000000000 
1 20.30599000000000132 3.08436500000000180 0.00000000000000000 0.00000000000000000 1.00000000000000000 0.00000000000000000 1.00000000000000000 0.00000000000000000 0.00000000000000000 0.00000000000000000 0.00000000000000000 -1.00000000000000000 
1 33.35115299999999650 3.08436500000000180 0.00000000000000000 -1.00000000000000000 0.00000000000000000 0.00000000000000000 0.00000000000000000 1.00000000000000000 0.00000000000000000 0.00000000000000000 0.00000000000000000 -1.00000000000000000 
1 33.35115299999999650 22.65211499999999489 0.00000000000000000 0.00000000000000000 -1.00000000000000000 0.00000000000000000 -1.00000000000000000 0.00000000000000000 0.00000000000000000 -0.00000000000000000 -0.00000000000000000 -1.00000000000000000 
1 20.30599000000000132 22.65211499999999489 0.00000000000000000 1.00000000000000000 0.00000000000000000 -0.00000000000000000 0.00000000000000000 -1.00000000000000000 0.00000000000000000 0.00000000000000000 -0.00000000000000000 -1.00000000000000000 
Triangulations 0

TShapes 91
Ve
0.000000100000007
68.700000000000003 65.430092000000002 3.000000000000000
0 0

0101101
*
Ve
0.000000100000007
66.700000000000003 65.430092000000002 3.000000000000000
0 0

0101101
*
Ed
 0.000000100000000 1 1 0
1  1 0 0.000000000000000 2.000000000000000
2  1 2 6 0.000000000000000 2.000000000000000
2  2 2 7 0.000000000000000 2.000000000000000
0

0101000
+91 7 -90 7 *
Ve
0.000000100000000
75.700000000000003 65.430092000000002 0.000000000000000
0 0

0101101
*
Ed
 0.000000100000000 1 1 0
1  2 0 0.000000000000000 2.000000000000000
0

0101000
+88 0 -88 8 *
Ed
 0.000000100000000 1 1 0
1  3 0 0.000000000000000 10.000000000000000
0

0101000
+91 9 -88 0 *
Ed
 0.000000100000000 1 1 0
1  3 0 0.000000000000000 10.000000000000000
0

0101000
+90 11 -88 0 *
Wi

0101100
+89 5 -87 2 -86 2 +85 10 *
Fa
0  0.000000100000000 1 2

0111000
+84 0 *
Ve
0.000000100000000
65.700000000000003 65.430092000000002 0.000000000000000
0 0

0101101
*
Ed
 0.000000100000000 1 1 0
1  4 0 0.000000000000000 1.570796326794897
2  3 2 0 0.000000000000000 1.570796326794897
2  4 3 0 0.000000000000000 1.570796326794897
0

0101000
+82 0 -91 0 *
Ve
0.000000100000000
65.700000000000003 65.430092000000002 2.000000000000000
0 0

0101101
*
Ed
 0.000000100000000 1 1 0
1  5 0 0.000000000000000 1.570796326794897
2  5 2 0 0.000000000000000 1.570796326794897
2  6 4 0 0.000000000000000 1.570796326794897
0

0101000
+80 0 -90 0 *
Ed
 0.000000100000000 1 1 0
1  1 0 0.000000000000000 2.000000000000000
2  1 2 6 0.000000000000000 2.000000000000000
2  2 2 7 0.000000000000000 2.000000000000000
0

0101000
+82 6 -80 6 *
Wi

0101100
+81 0 -79 0 -78 3 +89 5 *
Fa
0  0.000000100000000 2 0

0101000
+77 0 *
Ve
0.000000100000000
75.700000000000003 -12.398834000000008 0.000000000000000
0 0

0101101
*
Ed
 0.000000100000000 1 1 0
1  6 0 0.000000000000000 2.000000000000000
0

0101000
+75 0 -75 8 *
Ed
 0.000000100000000 1 1 0
1  7 0 0.000000000000000 77.828926000000010
0

0101000
+88 0 -75 0 *
Wi

0101100
+87 0 -74 0 -73 0 +73 8 *
Fa
0  0.000000100000000 5 0

0101000
+72 0 *
Ve
0.000000100000007
68.700000000000003 -12.398834000000008 3.000000000000000
0 0

0101101
*
Ed
 0.000000100000007 1 1 0
1  8 0 0.000000000000000 77.828926000000010
2  7 3 15 0.000000000000000 77.828926000000010
2  8 3 16 0.000000000000000 77.828926000000010
2  9 4 18 0.000000000000000 77.828926000000010
2  10 4 19 0.000000000000000 77.828926000000010
0

0101000
+91 16 -70 16 *
Ed
 0.000000100000000 1 1 0
1  9 0 0.000000000000000 10.000000000000000
0

0101000
+75 0 -70 9 *
Wi

0101100
-69 14 +86 2 +73 2 +68 2 *
Fa
0  0.000000100000000 6 2

0101000
+67 0 *
Ve
0.000000100000007
66.700000000000003 -12.398834000000008 3.000000000000000
0 0

0101101
*
Ed
 0.000000100000007 1 1 0
1  8 0 0.000000000000000 77.828926000000010
2  7 3 15 0.000000000000000 77.828926000000010
2  8 3 16 0.000000000000000 77.828926000000010
2  9 4 18 0.000000000000000 77.828926000000010
2  10 4 19 0.000000000000000 77.828926000000010
0

0101000
+90 19 -65 19 *
Ed
 0.000000100000000 1 1 0
1  9 0 0.000000000000000 10.000000000000000
0

0101000
+75 0 -65 11 *
Wi

0101100
-64 20 +85 10 +73 10 +63 10 *
Fa
0  0.000000100000000 6 10

0101000
+62 0 *
Ve
0.000000100000000
65.700000000000003 -12.398834000000008 0.000000000000000
0 0

0101101
*
Ed
 0.000000100000000 1 1 0
1  10 0 0.000000000000000 1.570796326794897
2  11 7 0 0.000000000000000 1.570796326794897
2  12 3 0 0.000000000000000 1.570796326794897
0

0101000
+60 0 -70 0 *
Ed
 0.000000100000000 1 1 0
1  8 0 0.000000000000000 77.828926000000010
2  7 3 15 0.000000000000000 77.828926000000010
2  8 3 16 0.000000000000000 77.828926000000010
2  9 4 18 0.000000000000000 77.828926000000010
2  10 4 19 0.000000000000000 77.828926000000010
0

0101000
+82 15 -60 15 *
Wi

0101100
+81 0 -59 0 -58 21 +69 14 *
Fa
0  0.000000100000000 3 0

0101000
+57 0 *
Ve
0.000000100000000
65.700000000000003 -12.398834000000008 2.000000000000000
0 0

0101101
*
Ed
 0.000000100000000 1 1 0
1  11 0 0.000000000000000 1.570796326794897
2  13 7 0 0.000000000000000 1.570796326794897
2  14 4 0 0.000000000000000 1.570796326794897
0

0101000
+55 0 -65 0 *
Ed
 0.000000100000000 1 1 0
1  8 0 0.000000000000000 77.828926000000010
2  7 3 15 0.000000000000000 77.828926000000010
2  8 3 16 0.000000000000000 77.828926000000010
2  9 4 18 0.000000000000000 77.828926000000010
2  10 4 19 0.000000000000000 77.828926000000010
0

0101000
+80 18 -55 18 *
Wi

0101100
+79 0 -54 0 -53 22 +64 20 *
Fa
0  0.000000100000000 4 0

0101000
+52 0 *
Ve
0.000000100000000
-11.739999999999995 65.430092000000002 0.000000000000000
0 0

0101101
*
Ed
 0.000000100000000 1 1 0
1  12 0 0.000000000000000 2.000000000000000
2  15 9 23 0.000000000000000 2.000000000000000
2  16 9 25 0.000000000000000 2.000000000000000
2  17 10 23 0.000000000000000 2.000000000000000
2  18 10 27 0.000000000000000 2.000000000000000
2  19 11 23 0.000000000000000 2.000000000000000
2  20 11 29 0.000000000000000 2.000000000000000
2  21 12 23 0.000000000000000 2.000000000000000
2  22 12 31 0.000000000000000 2.000000000000000
0

0101000
+50 32 -50 33 *
Ed
 0.000000100000000 1 1 0
1  13 0 0.000000000000000 77.439999999999998
0

0101000
+50 0 -82 15 *
Ed
 0.000000100000000 1 1 0
1  13 0 0.000000000000000 77.439999999999998
0

0101000
+50 0 -80 18 *
Wi

0101100
+49 3 -78 3 -48 21 +47 22 *
Fa
0  0.000000100000000 8 3

0101000
+46 0 *
Ed
 0.000000100000000 1 1 0
1  14 0 0.000000000000000 2.000000000000000
2  23 7 6 0.000000000000000 2.000000000000000
2  24 7 7 0.000000000000000 2.000000000000000
0

0101000
+70 7 -65 7 *
Wi

0101100
+74 2 -44 5 -68 2 +63 10 *
Fa
0  0.000000100000000 13 2

0111000
+43 0 *
Ed
 0.000000100000000 1 1 0
1  14 0 0.000000000000000 2.000000000000000
2  23 7 6 0.000000000000000 2.000000000000000
2  24 7 7 0.000000000000000 2.000000000000000
0

0101000
+60 6 -55 6 *
Wi

0101100
+59 0 -54 0 -41 3 +44 5 *
Fa
0  0.000000100000000 7 0

0101000
+40 0 *
Ve
0.000000100000000
-11.739999999999995 -12.398834000000008 0.000000000000000
0 0

0101101
*
Ed
 0.000000100000000 1 1 0
1  15 0 0.000000000000000 77.439999999999998
0

0101000
+60 15 -38 0 *
Ed
 0.000000100000000 1 1 0
1  16 0 0.000000000000000 77.828926000000010
2  25 15 35 0.000000000000000 77.828926000000010
2  26 15 36 0.000000000000000 77.828926000000010
2  27 16 37 0.000000000000000 77.828926000000010
2  28 16 38 0.000000000000000 77.828926000000010
2  29 17 35 0.000000000000000 77.828926000000010
2  30 17 39 0.000000000000000 77.828926000000010
2  31 18 37 0.000000000000000 77.828926000000010
2  32 18 40 0.000000000000000 77.828926000000010
2  33 19 35 0.000000000000000 77.828926000000010
2  34 19 41 0.000000000000000 77.828926000000010
2  35 20 37 0.000000000000000 77.828926000000010
2  36 20 42 0.000000000000000 77.828926000000010
2  37 21 35 0.000000000000000 77.828926000000010
2  38 21 43 0.000000000000000 77.828926000000010
2  39 22 37 0.000000000000000 77.828926000000010
2  40 22 44 0.000000000000000 77.828926000000010
0

0101000
+38 0 -50 0 *
Wi

0101100
+48 21 +58 21 +37 21 +36 21 *
Ve
0.000000100000000
20.305990000000001 3.084365000000002 0.000000000000000
0 0

0101101
*
Ve
0.000000100000000
33.351152999999996 3.084365000000002 0.000000000000000
0 0

0101101
*
Ed
 0.000000100000000 1 1 0
1  17 0 0.000000000000000 13.045162999999995
0

0101000
+34 0 -33 0 *
Ve
0.000000100000000
33.351152999999996 22.652114999999995 0.000000000000000
0 0

0101101
*
Ed
 0.000000100000000 1 1 0
1  18 0 0.000000000000000 19.567749999999993
0

0101000
+33 0 -31 0 *
Ve
0.000000100000000
20.305990000000001 22.652114999999995 0.000000000000000
0 0

0101101
*
Ed
 0.000000100000000 1 1 0
1  19 0 0.000000000000000 13.045162999999995
0

0101000
+31 0 -29 0 *
Ed
 0.000000100000000 1 1 0
1  20 0 0.000000000000000 19.567749999999993
0

0101000
+29 0 -34 0 *
Wi

0101100
+32 21 +30 21 +28 21 +27 21 *
Fa
0  0.000000100000000 14 34

0111000
+35 0 +26 0 *
Ed
 0.000000100000000 1 1 0
1  15 0 0.000000000000000 77.439999999999998
0

0101000
+55 18 -38 0 *
Wi

0101100
+47 22 +53 22 +24 22 +36 22 *
Wi

0101100
+32 22 +30 22 +28 22 +27 22 *
Fa
0  0.000000100000000 14 45

0111000
+23 0 +22 0 *
Ed
 0.000000100000000 1 1 0
1  21 0 0.000000000000000 2.000000000000000
2  41 24 23 0.000000000000000 2.000000000000000
2  42 24 25 0.000000000000000 2.000000000000000
2  43 25 23 0.000000000000000 2.000000000000000
2  44 25 27 0.000000000000000 2.000000000000000
2  45 26 23 0.000000000000000 2.000000000000000
2  46 26 29 0.000000000000000 2.000000000000000
2  47 27 23 0.000000000000000 2.000000000000000
2  48 27 31 0.000000000000000 2.000000000000000
0

0101000
+38 32 -38 33 *
Wi

0101100
+20 0 -49 0 -36 32 +36 33 *
Fa
0  0.000000100000000 23 0

0111000
+19 0 *
Wi

0101100
+41 3 -20 3 -37 21 +24 22 *
Fa
0  0.000000100000000 28 3

0101000
+17 0 *
Ed
 0.000000100000000 1 1 0
1  22 0 0.000000000000000 2.000000000000000
0

0101000
+34 32 -34 33 *
Ed
 0.000000100000000 1 1 0
1  23 0 0.000000000000000 2.000000000000000
0

0101000
+33 32 -33 33 *
Wi

0101100
+15 0 -14 0 -32 32 +32 33 *
Fa
0  0.000000100000000 29 0

0101000
+13 0 *
Ed
 0.000000100000000 1 1 0
1  24 0 0.000000000000000 2.000000000000000
0

0101000
+31 32 -31 33 *
Wi

0101100
+14 0 -11 0 -30 32 +30 33 *
Fa
0  0.000000100000000 30 0

0101000
+10 0 *
Ed
 0.000000100000000 1 1 0
1  25 0 0.000000000000000 2.000000000000000
0

0101000
+29 32 -29 33 *
Wi

0101100
+11 0 -8 0 -28 32 +28 33 *
Fa
0  0.000000100000000 31 0

0101000
+7 0 *
Wi

0101100
+8 0 -15 0 -27 32 +27 33 *
Fa
0  0.000000100000000 32 0

0101000
+5 0 *
Sh

0101100
+83 0 -76 0 +71 2 +66 0 -61 0 +56 0 -51 0 +45 0 +42 0 +39 0 
+25 0 -21 0 +18 3 +16 0 +12 3 +9 3 +6 3 +4 3 *
So

0100000
+3 0 *
Co

1100000
+2 0 *

+1 1 