
CASCADE Topology V1, (c) Matra-Datavision
Locations 14
1
0.723039843481291 -0.690806329399601 0.000000000000190 -148.742813621642853 
0.690806329399601 0.723039843481291 0.000000000000137 -24.047899286766267 
-0.000000000000232 0.000000000000032 1.000000000000000 -2.350000000000477 
1
1.000000000000000 0.000000000000000 0.000000000000000 0.000000000000000 
0.000000000000000 1.000000000000000 0.000000000000000 0.000000000000000 
0.000000000000000 0.000000000000000 1.000000000000000 0.000000000000000 
2  2 -1 0
1
1.000000000000000 0.000000000000000 0.000000000000000 0.000000000000000 
0.000000000000000 1.000000000000000 0.000000000000000 0.000000000000000 
0.000000000000000 0.000000000000000 1.000000000000000 0.000000000000000 
1
1.000000000000000 0.000000000000000 0.000000000000000 0.000000000000000 
0.000000000000000 1.000000000000000 0.000000000000000 0.000000000000000 
0.000000000000000 0.000000000000000 1.000000000000000 0.000000000000000 
2  4 1 5 -1 0
2  2 -1 5 1 4 -1 0
1
1.000000000000000 0.000000000000000 0.000000000000000 0.000000000000000 
0.000000000000000 1.000000000000000 0.000000000000000 0.000000000000000 
0.000000000000000 0.000000000000000 1.000000000000000 2.350000000000000 
2  4 1 5 -1 8 1 0
2  2 -1 8 -1 5 1 4 -1 0
2  5 1 4 -1 0
2  8 -1 5 1 4 -1 0
2  5 -1 0
2  5 -1 8 1 0
Curve2ds 4
1 0.00000000000000000 0.00000000000000000 0.00000000000000000 -1.00000000000000000 
1 6.28318530717958623 0.00000000000000000 0.00000000000000000 -1.00000000000000000 
1 0.00000000000000000 0.00000000000000000 1.00000000000000000 0.00000000000000000 
1 0.00000000000000000 -2.35000000000000009 1.00000000000000000 0.00000000000000000 
Curves 21
1 -2.92403170698769621 2.49226984009775121 0.00000000000000000 0.00000000000000000 0.00000000000000000 1.00000000000000000 
1 -1.51483059917984564 5.25906893612065396 0.00000000000000000 0.00000000000000000 0.00000000000000000 1.00000000000000000 
1 -2.92403170698769621 2.49226984009775121 0.00000000000000000 0.45384898802185147 0.89107861385600617 0.00000000000000000 
1 -2.92403170698769621 2.49226984009775121 0.00000000000000000 0.45384898802185147 0.89107861385600617 0.00000000000000000 
1 -3.20634834959957438 7.86287244253487305 0.00000000000000000 0.00000000000000000 0.00000000000000000 1.00000000000000000 
1 -1.51483059917984564 5.25906893612065396 0.00000000000000000 -0.54477222235740053 0.83858406003678543 0.00000000000000000 
1 -1.51483059917984564 5.25906893612065396 0.00000000000000000 -0.54477222235740053 0.83858406003678543 0.00000000000000000 
1 -6.30706720782714925 7.69987685292619339 0.00000000000000000 0.00000000000000000 0.00000000000000000 1.00000000000000000 
1 -3.20634834959957438 7.86287244253487305 0.00000000000000000 -0.99862121037925144 -0.05249455381922052 0.00000000000000000 
1 -3.20634834959957438 7.86287244253487305 0.00000000000000000 -0.99862121037925144 -0.05249455381922052 0.00000000000000000 
1 -7.71626831563499760 4.93307775690329464 0.00000000000000000 0.00000000000000000 0.00000000000000000 1.00000000000000000 
1 -6.30706720782714925 7.69987685292619339 0.00000000000000000 -0.45384898802185147 -0.89107861385600629 0.00000000000000000 
1 -6.30706720782714925 7.69987685292619339 0.00000000000000000 -0.45384898802185147 -0.89107861385600629 0.00000000000000000 
1 -6.02475056521527197 2.32927425048907466 0.00000000000000000 0.00000000000000000 0.00000000000000000 1.00000000000000000 
1 -7.71626831563499760 4.93307775690329464 0.00000000000000000 0.54477222235739975 -0.83858406003678609 0.00000000000000000 
1 -7.71626831563499760 4.93307775690329464 0.00000000000000000 0.54477222235739975 -0.83858406003678609 0.00000000000000000 
1 -6.02475056521527197 2.32927425048907466 0.00000000000000000 0.99862121037925144 0.05249455381921950 0.00000000000000000 
1 -6.02475056521527197 2.32927425048907466 0.00000000000000000 0.99862121037925144 0.05249455381921950 0.00000000000000000 
1 -3.11554945740742184 5.09607334651197341 0.00000000000000000 0.00000000000000000 0.00000000000000000 1.00000000000000000 
2 -4.61554945740742184 5.09607334651197341 0.00000000000000000 0.00000000000000000 0.00000000000000000 1.00000000000000000 1.00000000000000000 0.00000000000000000 -0.00000000000000000 -0.00000000000000000 1.00000000000000000 0.00000000000000000 1.50000000000000000
2 -4.61554945740742184 5.09607334651197341 0.00000000000000000 0.00000000000000000 0.00000000000000000 1.00000000000000000 1.00000000000000000 0.00000000000000000 -0.00000000000000000 -0.00000000000000000 1.00000000000000000 0.00000000000000000 1.50000000000000000
Polygon3D 0
PolygonOnTriangulations 0
Surfaces 9
1 -2.92403170698769621 2.49226984009775121 0.00000000000000000 -0.89107861385600617 0.45384898802185147 0.00000000000000000 0.45384898802185147 0.89107861385600617 0.00000000000000000 0.00000000000000000 0.00000000000000000 -1.00000000000000000 
1 -1.51483059917984564 5.25906893612065396 0.00000000000000000 -0.83858406003678543 -0.54477222235740053 0.00000000000000000 -0.54477222235740053 0.83858406003678543 0.00000000000000000 -0.00000000000000000 0.00000000000000000 -1.00000000000000000 
1 -3.20634834959957438 7.86287244253487305 0.00000000000000000 0.05249455381922052 -0.99862121037925144 0.00000000000000000 -0.99862121037925144 -0.05249455381922052 0.00000000000000000 0.00000000000000000 -0.00000000000000000 -1.00000000000000000 
1 -6.30706720782714925 7.69987685292619339 0.00000000000000000 0.89107861385600629 -0.45384898802185147 0.00000000000000000 -0.45384898802185147 -0.89107861385600629 0.00000000000000000 0.00000000000000000 -0.00000000000000000 -1.00000000000000000 
1 -7.71626831563499760 4.93307775690329464 0.00000000000000000 0.83858406003678609 0.54477222235739975 0.00000000000000000 0.54477222235739975 -0.83858406003678609 0.00000000000000000 0.00000000000000000 0.00000000000000000 -1.00000000000000000 
1 -6.02475056521527197 2.32927425048907466 0.00000000000000000 -0.05249455381921950 0.99862121037925144 0.00000000000000000 0.99862121037925144 0.05249455381921950 0.00000000000000000 0.00000000000000000 0.00000000000000000 -1.00000000000000000 
2 -4.61554945740742184 5.09607334651197341 0.00000000000000000 -0.00000000000000000 -0.00000000000000000 -1.00000000000000000 1.00000000000000000 0.00000000000000000 0.00000000000000000 -0.00000000000000000 1.00000000000000000 -0.00000000000000000 1.50000000000000000
1 -4.61554945740742184 5.09607334651197341 0.00000000000000000 0.00000000000000000 0.00000000000000000 1.00000000000000000 1.00000000000000000 0.00000000000000000 -0.00000000000000000 -0.00000000000000000 1.00000000000000000 0.00000000000000000 
1 -4.61554945740742184 5.09607334651197341 0.00000000000000000 0.00000000000000000 0.00000000000000000 1.00000000000000000 1.00000000000000000 0.00000000000000000 -0.00000000000000000 -0.00000000000000000 1.00000000000000000 0.00000000000000000 
Triangulations 0

TShapes 57
Ve
0.000000100000000
-2.924031706987696 2.492269840097751 0.000000000000000
0 0

0101101
*
Ve
0.000000100000000
-2.924031706987696 2.492269840097751 2.350000000000000
0 0

0101101
*
Ed
 0.000000100000000 1 1 0
1  1 0 0.000000000000000 2.350000000000000
0

0101000
+57 3 -56 3 *
Ve
0.000000100000000
-1.514830599179846 5.259068936120654 0.000000000000000
0 0

0101101
*
Ve
0.000000100000000
-1.514830599179846 5.259068936120654 2.350000000000000
0 0

0101101
*
Ed
 0.000000100000000 1 1 0
1  2 0 0.000000000000000 2.350000000000000
0

0101000
+54 3 -53 3 *
Ed
 0.000000100000000 1 1 0
1  3 0 0.000000000000000 3.105000000000004
0

0101000
+57 7 -54 7 *
Ed
 0.000000100000000 1 1 0
1  4 0 0.000000000000000 3.105000000000004
0

0101000
+56 10 -53 10 *
Wi

0101100
+55 0 -52 0 -51 6 +50 9 *
Fa
0  0.000000100000000 1 0

0101000
+49 0 *
Ve
0.000000100000000
-3.206348349599574 7.862872442534873 0.000000000000000
0 0

0101101
*
Ve
0.000000100000000
-3.206348349599574 7.862872442534873 2.350000000000000
0 0

0101101
*
Ed
 0.000000100000000 1 1 0
1  5 0 0.000000000000000 2.350000000000000
0

0101000
+47 3 -46 3 *
Ed
 0.000000100000000 1 1 0
1  6 0 0.000000000000000 3.105000000000000
0

0101000
+54 7 -47 7 *
Ed
 0.000000100000000 1 1 0
1  7 0 0.000000000000000 3.105000000000000
0

0101000
+53 10 -46 10 *
Wi

0101100
+52 0 -45 0 -44 6 +43 9 *
Fa
0  0.000000100000000 2 0

0101000
+42 0 *
Ve
0.000000100000000
-6.307067207827149 7.699876852926193 0.000000000000000
0 0

0101101
*
Ve
0.000000100000000
-6.307067207827149 7.699876852926193 2.350000000000000
0 0

0101101
*
Ed
 0.000000100000000 1 1 0
1  8 0 0.000000000000000 2.350000000000000
0

0101000
+40 3 -39 3 *
Ed
 0.000000100000000 1 1 0
1  9 0 0.000000000000000 3.104999999999999
0

0101000
+47 7 -40 7 *
Ed
 0.000000100000000 1 1 0
1  10 0 0.000000000000000 3.104999999999999
0

0101000
+46 10 -39 10 *
Wi

0101100
+45 0 -38 0 -37 6 +36 9 *
Fa
0  0.000000100000000 3 0

0101000
+35 0 *
Ve
0.000000100000000
-7.716268315634998 4.933077756903295 0.000000000000000
0 0

0101101
*
Ve
0.000000100000000
-7.716268315634998 4.933077756903295 2.350000000000000
0 0

0101101
*
Ed
 0.000000100000000 1 1 0
1  11 0 0.000000000000000 2.350000000000000
0

0101000
+33 3 -32 3 *
Ed
 0.000000100000000 1 1 0
1  12 0 0.000000000000000 3.104999999999999
0

0101000
+40 7 -33 7 *
Ed
 0.000000100000000 1 1 0
1  13 0 0.000000000000000 3.104999999999999
0

0101000
+39 10 -32 10 *
Wi

0101100
+38 0 -31 0 -30 6 +29 9 *
Fa
0  0.000000100000000 4 0

0101000
+28 0 *
Ve
0.000000100000000
-6.024750565215272 2.329274250489075 0.000000000000000
0 0

0101101
*
Ve
0.000000100000000
-6.024750565215272 2.329274250489075 2.350000000000000
0 0

0101101
*
Ed
 0.000000100000000 1 1 0
1  14 0 0.000000000000000 2.350000000000000
0

0101000
+26 3 -25 3 *
Ed
 0.000000100000000 1 1 0
1  15 0 0.000000000000000 3.104999999999999
0

0101000
+33 7 -26 7 *
Ed
 0.000000100000000 1 1 0
1  16 0 0.000000000000000 3.104999999999999
0

0101000
+32 10 -25 10 *
Wi

0101100
+31 0 -24 0 -23 6 +22 9 *
Fa
0  0.000000100000000 5 0

0101000
+21 0 *
Ed
 0.000000100000000 1 1 0
1  17 0 0.000000000000000 3.105000000000000
0

0101000
+26 7 -57 7 *
Ed
 0.000000100000000 1 1 0
1  18 0 0.000000000000000 3.105000000000000
0

0101000
+25 10 -56 10 *
Wi

0101100
+24 0 -55 0 -19 6 +18 9 *
Fa
0  0.000000100000000 6 0

0101000
+17 0 *
Ve
0.000000100000000
-3.115549457407422 5.096073346511973 0.000000000000000
0 0

0101101
*
Ve
0.000000100000000
-3.115549457407422 5.096073346511973 2.350000000000000
0 0

0101101
*
Ed
 0.000000100000000 1 1 0
1  19 0 0.000000000000000 2.350000000000000
3  1 2CN 7 0 0.000000000000000 2.350000000000000
0

0101000
+15 3 -14 3 *
Ed
 0.000000100000000 1 1 0
1  20 0 0.000000000000000 6.283185307179586
2  3 7 11 0.000000000000000 6.283185307179586
0

0101000
+15 7 -15 7 *
Ed
 0.000000100000000 1 1 0
1  21 0 0.000000000000000 6.283185307179586
2  4 7 12 0.000000000000000 6.283185307179586
0

0101000
+14 10 -14 10 *
Wi

0101100
+13 0 -13 0 -12 6 +11 9 *
Fa
0  0.000000100000000 7 0

0101000
+10 0 *
Wi

0101100
+51 4 +44 4 +37 4 +30 4 +23 4 +19 4 *
Wi

0101100
-12 4 *
Fa
0  0.000000100000000 8 0

0101000
+8 0 +7 0 *
Wi

0101100
+50 4 +43 4 +36 4 +29 4 +22 4 +18 4 *
Wi

0101100
-11 4 *
Fa
0  0.000000100000000 9 0

0101000
+5 0 +4 0 *
Sh

0101100
+48 0 +41 0 +34 0 +27 0 +20 0 +16 0 -9 0 +6 13 -3 14 *
So

0100000
-2 0 *

+1 1 