
CASCADE Topology V1, (c) Matra-Datavision
Locations 58
1
1.000000000000000 0.000000000000000 0.000000000000000 0.000000000000000 
0.000000000000000 1.000000000000000 0.000000000000000 0.000000000000000 
0.000000000000000 0.000000000000000 1.000000000000000 0.000000000000000 
1
0.000000000000000 0.000000000000000 1.000000000000000 -14.739999999999993 
0.000000000000000 1.000000000000000 0.000000000000000 0.000000000000000 
-1.000000000000000 0.000000000000000 0.000000000000000 -8.739999999999995 
1
1.000000000000000 0.000000000000000 0.000000000000000 0.000000000000000 
0.000000000000000 1.000000000000000 0.000000000000000 0.000000000000000 
0.000000000000000 0.000000000000000 1.000000000000000 0.000000000000000 
1
1.000000000000000 0.000000000000000 0.000000000000000 0.000000000000000 
0.000000000000000 1.000000000000000 0.000000000000000 0.000000000000000 
0.000000000000000 0.000000000000000 1.000000000000000 0.000000000000000 
1
0.000000000000000 0.000000000000000 1.000000000000000 -14.739999999999993 
0.000000000000000 1.000000000000000 0.000000000000000 0.000000000000000 
-1.000000000000000 0.000000000000000 0.000000000000000 -8.739999999999995 
2  3 1 4 1 5 1 0
2  4 -1 3 -1 0
1
0.000000000000000 0.000000000000000 1.000000000000000 -14.739999999999993 
0.000000000000000 1.000000000000000 0.000000000000000 0.000000000000000 
-1.000000000000000 0.000000000000000 0.000000000000000 -8.739999999999995 
2  8 -1 4 -1 3 -1 0
1
0.000000000000000 0.000000000000000 1.000000000000000 -14.739999999999993 
0.000000000000000 1.000000000000000 0.000000000000000 0.000000000000000 
-1.000000000000000 0.000000000000000 0.000000000000000 -8.739999999999995 
2  10 -1 4 -1 3 -1 0
1
0.000000000000000 0.000000000000000 1.000000000000000 -14.739999999999993 
0.000000000000000 1.000000000000000 0.000000000000000 0.000000000000000 
-1.000000000000000 0.000000000000000 0.000000000000000 -8.739999999999995 
2  12 -1 4 -1 3 -1 0
2  5 -1 4 -1 3 -1 0
1
1.000000000000000 0.000000000000000 0.000000000000000 0.000000000000000 
0.000000000000000 1.000000000000000 0.000000000000000 0.000000000000000 
0.000000000000000 0.000000000000000 1.000000000000000 2.000000000000000 
2  2 -1 0
2  15 1 2 1 0
2  2 -1 15 -1 0
2  3 1 4 1 0
1
1.000000000000000 0.000000000000000 0.000000000000000 0.000000000000000 
0.000000000000000 1.000000000000000 0.000000000000000 0.000000000000000 
0.000000000000000 0.000000000000000 1.000000000000000 0.000000000000000 
1
1.000000000000000 0.000000000000000 0.000000000000000 0.000000000000000 
0.000000000000000 1.000000000000000 0.000000000000000 0.000000000000000 
0.000000000000000 0.000000000000000 1.000000000000000 0.000000000000000 
2  20 1 21 -1 3 1 4 1 5 1 0
2  4 -1 3 -1 21 1 20 -1 0
2  8 -1 4 -1 3 -1 21 1 20 -1 0
1
1.000000000000000 0.000000000000000 0.000000000000000 0.000000000000000 
0.000000000000000 1.000000000000000 0.000000000000000 0.000000000000000 
0.000000000000000 0.000000000000000 1.000000000000000 2.000000000000000 
2  4 -1 3 -1 25 -1 21 1 20 -1 0
2  8 -1 4 -1 3 -1 25 -1 21 1 20 -1 0
2  10 -1 4 -1 3 -1 21 1 20 -1 0
2  10 -1 4 -1 3 -1 25 -1 21 1 20 -1 0
2  12 -1 4 -1 3 -1 21 1 20 -1 0
2  12 -1 4 -1 3 -1 25 -1 21 1 20 -1 0
2  5 -1 4 -1 3 -1 21 1 20 -1 0
2  5 -1 4 -1 3 -1 25 -1 21 1 20 -1 0
2  20 1 21 -1 25 1 3 1 4 1 5 1 0
2  20 1 21 -1 3 1 4 1 0
2  20 1 21 -1 25 1 3 1 4 1 0
2  3 -1 0
1
0.000000000000000 0.000000000000000 -1.000000000000000 68.699999999999989 
0.000000000000000 1.000000000000000 0.000000000000000 0.000000000000000 
1.000000000000000 0.000000000000000 0.000000000000000 -62.700000000000003 
2  38 -1 3 -1 0
2  3 -1 21 1 20 -1 0
2  3 -1 25 -1 21 1 20 -1 0
2  21 -1 3 1 4 1 0
2  38 -1 3 -1 21 1 20 -1 0
2  38 -1 3 -1 25 -1 21 1 20 -1 0
2  21 -1 25 1 3 1 4 1 0
2  3 1 38 1 0
2  20 1 21 -1 3 1 0
2  20 1 21 -1 3 1 38 1 0
2  20 1 21 -1 0
2  20 1 21 -1 25 1 0
2  20 1 21 -1 25 1 3 1 0
2  20 1 21 -1 25 1 3 1 38 1 0
1
0.000000000000000 0.000000000000000 -1.000000000000000 68.699999999999989 
0.000000000000000 1.000000000000000 0.000000000000000 0.000000000000000 
1.000000000000000 0.000000000000000 0.000000000000000 -62.700000000000003 
1
1.000000000000000 0.000000000000000 0.000000000000000 0.000000000000000 
0.000000000000000 1.000000000000000 0.000000000000000 0.000000000000000 
0.000000000000000 0.000000000000000 1.000000000000000 2.000000000000000 
2  53 -1 0
2  54 1 53 1 0
2  53 -1 54 -1 0
2  53 1 4 1 0
Curve2ds 56
1 3.00000000000000000 0.00000000000000000 -1.00000000000000000 0.00000000000000000 
1 0.00000000000000000 3.00000000000000000 -0.00000000000000011 -1.00000000000000000 
1 3.00000000000000000 0.00000000000000000 -1.00000000000000000 0.00000000000000000 
1 0.00000000000000000 3.00000000000000000 -0.00000000000000011 -1.00000000000000000 
1 3.00000000000000000 0.00000000000000000 -1.00000000000000000 0.00000000000000000 
1 0.00000000000000000 3.00000000000000000 -0.00000000000000011 -1.00000000000000000 
1 3.00000000000000000 0.00000000000000000 -1.00000000000000000 0.00000000000000000 
1 0.00000000000000000 3.00000000000000000 -0.00000000000000011 -1.00000000000000000 
2 0.00000000000000000 0.00000000000000000 1.00000000000000000 0.00000000000000000 -0.00000000000000000 1.00000000000000000 3.00000000000000000
1 0.00000000000000000 0.00000000000000000 1.00000000000000000 0.00000000000000000 
2 0.00000000000000000 0.00000000000000000 1.00000000000000000 0.00000000000000000 -0.00000000000000000 1.00000000000000000 1.00000000000000000
1 0.00000000000000000 0.00000000000000000 1.00000000000000000 0.00000000000000000 
1 0.00000000000000000 0.00000000000000000 0.00000000000000000 1.00000000000000000 
1 1.57079632679489656 0.00000000000000000 0.00000000000000000 1.00000000000000000 
1 0.00000000000000000 0.00000000000000000 0.00000000000000000 1.00000000000000000 
1 1.57079632679489656 0.00000000000000000 0.00000000000000000 1.00000000000000000 
1 0.00000000000000000 0.00000000000000000 0.00000000000000000 1.00000000000000000 
1 1.57079632679489656 0.00000000000000000 0.00000000000000000 1.00000000000000000 
1 0.00000000000000000 0.00000000000000000 0.00000000000000000 1.00000000000000000 
1 1.57079632679489656 0.00000000000000000 0.00000000000000000 1.00000000000000000 
1 0.00000000000000000 0.00000000000000000 0.00000000000000000 1.00000000000000000 
1 1.57079632679489656 0.00000000000000000 0.00000000000000000 1.00000000000000000 
1 0.00000000000000000 0.00000000000000000 0.00000000000000000 1.00000000000000000 
1 1.57079632679489656 0.00000000000000000 0.00000000000000000 1.00000000000000000 
1 0.00000000000000000 0.00000000000000000 0.00000000000000000 1.00000000000000000 
1 1.57079632679489656 0.00000000000000000 0.00000000000000000 1.00000000000000000 
1 0.00000000000000000 0.00000000000000000 0.00000000000000000 1.00000000000000000 
1 1.57079632679489656 0.00000000000000000 0.00000000000000000 1.00000000000000000 
2 0.00000000000000000 0.00000000000000000 1.00000000000000000 0.00000000000000000 -0.00000000000000000 1.00000000000000000 3.00000000000000000
1 0.00000000000000000 77.82892600000000982 1.00000000000000000 0.00000000000000000 
2 0.00000000000000000 0.00000000000000000 1.00000000000000000 0.00000000000000000 -0.00000000000000000 1.00000000000000000 1.00000000000000000
1 0.00000000000000000 77.82892600000000982 1.00000000000000000 0.00000000000000000 
1 3.00000000000000000 0.00000000000000000 -1.00000000000000000 0.00000000000000000 
1 0.00000000000000000 3.00000000000000000 -0.00000000000000011 -1.00000000000000000 
1 3.00000000000000000 0.00000000000000000 -1.00000000000000000 0.00000000000000000 
1 0.00000000000000000 3.00000000000000000 -0.00000000000000011 -1.00000000000000000 
1 3.00000000000000000 0.00000000000000000 -1.00000000000000000 0.00000000000000000 
1 0.00000000000000000 3.00000000000000000 -0.00000000000000011 -1.00000000000000000 
1 3.00000000000000000 0.00000000000000000 -1.00000000000000000 0.00000000000000000 
1 0.00000000000000000 3.00000000000000000 -0.00000000000000011 -1.00000000000000000 
1 3.00000000000000000 0.00000000000000000 -1.00000000000000000 0.00000000000000000 
1 0.00000000000000000 3.00000000000000000 -0.00000000000000011 -1.00000000000000000 
1 0.00000000000000000 0.00000000000000000 0.00000000000000000 1.00000000000000000 
1 1.57079632679489656 0.00000000000000000 0.00000000000000000 1.00000000000000000 
1 0.00000000000000000 0.00000000000000000 0.00000000000000000 1.00000000000000000 
1 1.57079632679489656 0.00000000000000000 0.00000000000000000 1.00000000000000000 
2 0.00000000000000000 0.00000000000000000 1.00000000000000000 0.00000000000000000 -0.00000000000000000 1.00000000000000000 3.00000000000000000
1 0.00000000000000000 77.82892600000000982 1.00000000000000000 0.00000000000000000 
2 0.00000000000000000 0.00000000000000000 1.00000000000000000 0.00000000000000000 -0.00000000000000000 1.00000000000000000 1.00000000000000000
1 0.00000000000000000 77.82892600000000982 1.00000000000000000 0.00000000000000000 
1 3.00000000000000000 0.00000000000000000 -1.00000000000000000 0.00000000000000000 
1 0.00000000000000000 3.00000000000000000 -0.00000000000000011 -1.00000000000000000 
2 0.00000000000000000 0.00000000000000000 1.00000000000000000 0.00000000000000000 -0.00000000000000000 1.00000000000000000 3.00000000000000000
1 0.00000000000000000 0.00000000000000000 1.00000000000000000 0.00000000000000000 
2 0.00000000000000000 0.00000000000000000 1.00000000000000000 0.00000000000000000 -0.00000000000000000 1.00000000000000000 1.00000000000000000
1 0.00000000000000000 0.00000000000000000 1.00000000000000000 0.00000000000000000 
Curves 34
1 -11.73999999999999488 -12.39883400000000790 0.00000000000000000 0.00000000000000000 0.00000000000000000 1.00000000000000000 
1 -44.73999999999999488 -12.39883400000000790 0.00000000000000000 0.00000000000000000 0.00000000000000000 1.00000000000000000 
1 -11.73999999999999488 -12.39883400000000790 0.00000000000000000 -1.00000000000000000 0.00000000000000000 0.00000000000000000 
2 -11.73999999999999488 -12.39883400000000790 3.00000000000000000 0.00000000000000000 1.00000000000000000 0.00000000000000000 0.00000000000000000 0.00000000000000000 -1.00000000000000000 -1.00000000000000000 0.00000000000000000 0.00000000000000000 3.00000000000000000
2 -11.73999999999999488 -12.39883400000000790 3.00000000000000000 0.00000000000000000 1.00000000000000000 0.00000000000000000 0.00000000000000000 0.00000000000000000 -1.00000000000000000 -1.00000000000000000 0.00000000000000000 0.00000000000000000 1.00000000000000000
1 -44.73999999999999488 65.43009200000000192 0.00000000000000000 0.00000000000000000 0.00000000000000000 1.00000000000000000 
1 -44.73999999999999488 -12.39883400000000790 0.00000000000000000 0.00000000000000000 1.00000000000000000 0.00000000000000000 
1 -11.73999999999999488 -12.39883400000000790 0.00000000000000000 0.00000000000000000 1.00000000000000000 0.00000000000000000 
1 -44.73999999999999488 65.43009200000000192 0.00000000000000000 1.00000000000000000 0.00000000000000000 0.00000000000000000 
2 -11.73999999999999488 65.43009200000000192 3.00000000000000000 0.00000000000000000 1.00000000000000000 0.00000000000000000 0.00000000000000000 0.00000000000000000 -1.00000000000000000 -1.00000000000000000 0.00000000000000000 0.00000000000000000 3.00000000000000000
2 -11.73999999999999488 65.43009200000000192 3.00000000000000000 0.00000000000000000 1.00000000000000000 0.00000000000000000 0.00000000000000000 0.00000000000000000 -1.00000000000000000 -1.00000000000000000 0.00000000000000000 0.00000000000000000 1.00000000000000000
1 65.70000000000000284 -12.39883400000000790 0.00000000000000000 0.00000000000000000 0.00000000000000000 1.00000000000000000 
1 65.70000000000000284 -12.39883400000000790 0.00000000000000000 -1.00000000000000000 0.00000000000000000 0.00000000000000000 
1 -11.73999999999999488 65.43009200000000192 0.00000000000000000 0.00000000000000000 0.00000000000000000 1.00000000000000000 
1 -11.73999999999999488 65.43009200000000192 0.00000000000000000 1.00000000000000000 0.00000000000000000 0.00000000000000000 
1 65.70000000000000284 65.43009200000000192 0.00000000000000000 0.00000000000000000 -1.00000000000000000 0.00000000000000000 
1 20.30599000000000132 3.08436500000000180 0.00000000000000000 1.00000000000000000 0.00000000000000000 0.00000000000000000 
1 33.35115299999999650 3.08436500000000180 0.00000000000000000 0.00000000000000000 1.00000000000000000 0.00000000000000000 
1 33.35115299999999650 22.65211499999999489 0.00000000000000000 -1.00000000000000000 0.00000000000000000 0.00000000000000000 
1 20.30599000000000132 22.65211499999999489 0.00000000000000000 0.00000000000000000 -1.00000000000000000 0.00000000000000000 
2 65.70000000000000284 -12.39883400000000790 3.00000000000000000 0.00000000000000000 -1.00000000000000000 0.00000000000000000 0.00000000000000000 0.00000000000000000 -1.00000000000000000 1.00000000000000000 0.00000000000000000 0.00000000000000000 3.00000000000000000
2 65.70000000000000284 -12.39883400000000790 3.00000000000000000 0.00000000000000000 -1.00000000000000000 0.00000000000000000 0.00000000000000000 0.00000000000000000 -1.00000000000000000 1.00000000000000000 0.00000000000000000 0.00000000000000000 1.00000000000000000
1 65.70000000000000284 65.43009200000000192 0.00000000000000000 0.00000000000000000 0.00000000000000000 1.00000000000000000 
2 65.70000000000000284 65.43009200000000192 3.00000000000000000 0.00000000000000000 -1.00000000000000000 0.00000000000000000 0.00000000000000000 0.00000000000000000 -1.00000000000000000 1.00000000000000000 0.00000000000000000 0.00000000000000000 3.00000000000000000
1 20.30599000000000132 3.08436500000000180 0.00000000000000000 0.00000000000000000 0.00000000000000000 1.00000000000000000 
1 33.35115299999999650 3.08436500000000180 0.00000000000000000 0.00000000000000000 0.00000000000000000 1.00000000000000000 
1 33.35115299999999650 22.65211499999999489 0.00000000000000000 0.00000000000000000 0.00000000000000000 1.00000000000000000 
1 20.30599000000000132 22.65211499999999489 0.00000000000000000 0.00000000000000000 0.00000000000000000 1.00000000000000000 
2 65.70000000000000284 65.43009200000000192 3.00000000000000000 0.00000000000000000 -1.00000000000000000 0.00000000000000000 0.00000000000000000 0.00000000000000000 -1.00000000000000000 1.00000000000000000 0.00000000000000000 0.00000000000000000 1.00000000000000000
1 75.70000000000000284 -12.39883400000000790 0.00000000000000000 0.00000000000000000 0.00000000000000000 1.00000000000000000 
1 75.70000000000000284 -12.39883400000000790 0.00000000000000000 -1.00000000000000000 0.00000000000000000 0.00000000000000000 
1 65.70000000000000284 65.43009200000000192 0.00000000000000000 1.00000000000000000 0.00000000000000000 0.00000000000000000 
1 75.70000000000000284 65.43009200000000192 0.00000000000000000 0.00000000000000000 -1.00000000000000000 0.00000000000000000 
1 75.70000000000000284 65.43009200000000192 0.00000000000000000 0.00000000000000000 0.00000000000000000 1.00000000000000000 
Polygon3D 0
PolygonOnTriangulations 0
Surfaces 35
1 -11.73999999999999488 -12.39883400000000790 0.00000000000000000 0.00000000000000000 -1.00000000000000000 0.00000000000000000 -1.00000000000000000 0.00000000000000000 0.00000000000000000 -0.00000000000000000 -0.00000000000000000 -1.00000000000000000 
1 -11.73999999999999488 -12.39883400000000790 3.00000000000000000 0.00000000000000000 1.00000000000000000 0.00000000000000000 0.00000000000000000 0.00000000000000000 -1.00000000000000000 -1.00000000000000000 0.00000000000000000 0.00000000000000000 
1 -11.73999999999999488 -12.39883400000000790 3.00000000000000000 0.00000000000000000 1.00000000000000000 0.00000000000000000 0.00000000000000000 0.00000000000000000 -1.00000000000000000 -1.00000000000000000 0.00000000000000000 0.00000000000000000 
1 -11.73999999999999488 -12.39883400000000790 3.00000000000000000 0.00000000000000000 1.00000000000000000 0.00000000000000000 0.00000000000000000 0.00000000000000000 -1.00000000000000000 -1.00000000000000000 0.00000000000000000 0.00000000000000000 
1 -11.73999999999999488 -12.39883400000000790 3.00000000000000000 0.00000000000000000 1.00000000000000000 0.00000000000000000 0.00000000000000000 0.00000000000000000 -1.00000000000000000 -1.00000000000000000 0.00000000000000000 0.00000000000000000 
2 -11.73999999999999488 -12.39883400000000790 3.00000000000000000 0.00000000000000000 1.00000000000000000 0.00000000000000000 0.00000000000000000 0.00000000000000000 -1.00000000000000000 -1.00000000000000000 0.00000000000000000 0.00000000000000000 3.00000000000000000
2 -11.73999999999999488 -12.39883400000000790 3.00000000000000000 0.00000000000000000 1.00000000000000000 0.00000000000000000 0.00000000000000000 0.00000000000000000 -1.00000000000000000 -1.00000000000000000 0.00000000000000000 0.00000000000000000 1.00000000000000000
1 -44.73999999999999488 -12.39883400000000790 0.00000000000000000 -1.00000000000000000 0.00000000000000000 0.00000000000000000 0.00000000000000000 1.00000000000000000 0.00000000000000000 0.00000000000000000 0.00000000000000000 -1.00000000000000000 
1 -28.23999999999999488 26.51562899999999701 0.00000000000000000 -0.00000000000000000 -0.00000000000000000 -1.00000000000000000 -1.00000000000000000 0.00000000000000000 0.00000000000000000 0.00000000000000000 1.00000000000000000 -0.00000000000000000 
2 -11.73999999999999488 -12.39883400000000790 3.00000000000000000 0.00000000000000000 1.00000000000000000 0.00000000000000000 0.00000000000000000 0.00000000000000000 -1.00000000000000000 -1.00000000000000000 0.00000000000000000 0.00000000000000000 3.00000000000000000
2 -11.73999999999999488 -12.39883400000000790 3.00000000000000000 0.00000000000000000 1.00000000000000000 0.00000000000000000 0.00000000000000000 0.00000000000000000 -1.00000000000000000 -1.00000000000000000 0.00000000000000000 0.00000000000000000 1.00000000000000000
2 -11.73999999999999488 -12.39883400000000790 3.00000000000000000 0.00000000000000000 1.00000000000000000 0.00000000000000000 0.00000000000000000 0.00000000000000000 -1.00000000000000000 -1.00000000000000000 0.00000000000000000 0.00000000000000000 3.00000000000000000
2 -11.73999999999999488 -12.39883400000000790 3.00000000000000000 0.00000000000000000 1.00000000000000000 0.00000000000000000 0.00000000000000000 0.00000000000000000 -1.00000000000000000 -1.00000000000000000 0.00000000000000000 0.00000000000000000 1.00000000000000000
2 -11.73999999999999488 -12.39883400000000790 3.00000000000000000 0.00000000000000000 1.00000000000000000 0.00000000000000000 0.00000000000000000 0.00000000000000000 -1.00000000000000000 -1.00000000000000000 0.00000000000000000 0.00000000000000000 3.00000000000000000
2 -11.73999999999999488 -12.39883400000000790 3.00000000000000000 0.00000000000000000 1.00000000000000000 0.00000000000000000 0.00000000000000000 0.00000000000000000 -1.00000000000000000 -1.00000000000000000 0.00000000000000000 0.00000000000000000 1.00000000000000000
1 -11.73999999999999488 65.43009200000000192 3.00000000000000000 0.00000000000000000 1.00000000000000000 0.00000000000000000 0.00000000000000000 0.00000000000000000 -1.00000000000000000 -1.00000000000000000 0.00000000000000000 0.00000000000000000 
1 65.70000000000000284 -12.39883400000000790 0.00000000000000000 0.00000000000000000 -1.00000000000000000 0.00000000000000000 -1.00000000000000000 0.00000000000000000 0.00000000000000000 -0.00000000000000000 -0.00000000000000000 -1.00000000000000000 
1 65.70000000000000284 -12.39883400000000790 3.00000000000000000 0.00000000000000000 -1.00000000000000000 0.00000000000000000 0.00000000000000000 0.00000000000000000 -1.00000000000000000 1.00000000000000000 0.00000000000000000 0.00000000000000000 
1 -44.73999999999999488 65.43009200000000192 0.00000000000000000 0.00000000000000000 1.00000000000000000 0.00000000000000000 1.00000000000000000 0.00000000000000000 0.00000000000000000 0.00000000000000000 0.00000000000000000 -1.00000000000000000 
1 -11.73999999999999488 65.43009200000000192 3.00000000000000000 0.00000000000000000 1.00000000000000000 0.00000000000000000 0.00000000000000000 0.00000000000000000 -1.00000000000000000 -1.00000000000000000 0.00000000000000000 0.00000000000000000 
1 -11.73999999999999488 65.43009200000000192 3.00000000000000000 0.00000000000000000 1.00000000000000000 0.00000000000000000 0.00000000000000000 0.00000000000000000 -1.00000000000000000 -1.00000000000000000 0.00000000000000000 0.00000000000000000 
1 -11.73999999999999488 65.43009200000000192 3.00000000000000000 0.00000000000000000 1.00000000000000000 0.00000000000000000 0.00000000000000000 0.00000000000000000 -1.00000000000000000 -1.00000000000000000 0.00000000000000000 0.00000000000000000 
1 26.98000000000000398 26.51562899999999701 0.00000000000000000 -0.00000000000000000 -0.00000000000000000 -1.00000000000000000 -1.00000000000000000 0.00000000000000000 0.00000000000000000 0.00000000000000000 1.00000000000000000 -0.00000000000000000 
2 65.70000000000000284 65.43009200000000192 3.00000000000000000 0.00000000000000000 -1.00000000000000000 0.00000000000000000 0.00000000000000000 0.00000000000000000 -1.00000000000000000 1.00000000000000000 0.00000000000000000 0.00000000000000000 3.00000000000000000
2 65.70000000000000284 65.43009200000000192 3.00000000000000000 0.00000000000000000 -1.00000000000000000 0.00000000000000000 0.00000000000000000 0.00000000000000000 -1.00000000000000000 1.00000000000000000 0.00000000000000000 0.00000000000000000 1.00000000000000000
1 -11.73999999999999488 65.43009200000000192 0.00000000000000000 0.00000000000000000 1.00000000000000000 0.00000000000000000 1.00000000000000000 0.00000000000000000 0.00000000000000000 0.00000000000000000 0.00000000000000000 -1.00000000000000000 
1 65.70000000000000284 65.43009200000000192 3.00000000000000000 0.00000000000000000 -1.00000000000000000 0.00000000000000000 0.00000000000000000 0.00000000000000000 -1.00000000000000000 1.00000000000000000 0.00000000000000000 0.00000000000000000 
1 20.30599000000000132 3.08436500000000180 0.00000000000000000 0.00000000000000000 1.00000000000000000 0.00000000000000000 1.00000000000000000 0.00000000000000000 0.00000000000000000 0.00000000000000000 0.00000000000000000 -1.00000000000000000 
1 33.35115299999999650 3.08436500000000180 0.00000000000000000 -1.00000000000000000 0.00000000000000000 0.00000000000000000 0.00000000000000000 1.00000000000000000 0.00000000000000000 0.00000000000000000 0.00000000000000000 -1.00000000000000000 
1 33.35115299999999650 22.65211499999999489 0.00000000000000000 0.00000000000000000 -1.00000000000000000 0.00000000000000000 -1.00000000000000000 0.00000000000000000 0.00000000000000000 -0.00000000000000000 -0.00000000000000000 -1.00000000000000000 
1 20.30599000000000132 22.65211499999999489 0.00000000000000000 1.00000000000000000 0.00000000000000000 -0.00000000000000000 0.00000000000000000 -1.00000000000000000 0.00000000000000000 0.00000000000000000 -0.00000000000000000 -1.00000000000000000 
1 75.70000000000000284 -12.39883400000000790 0.00000000000000000 0.00000000000000000 -1.00000000000000000 0.00000000000000000 -1.00000000000000000 0.00000000000000000 0.00000000000000000 -0.00000000000000000 -0.00000000000000000 -1.00000000000000000 
1 70.70000000000001705 26.51562899999999345 0.00000000000000000 -0.00000000000000000 -0.00000000000000000 -1.00000000000000000 -1.00000000000000000 0.00000000000000000 0.00000000000000000 0.00000000000000000 1.00000000000000000 -0.00000000000000000 
1 75.70000000000000284 65.43009200000000192 0.00000000000000000 1.00000000000000000 0.00000000000000000 -0.00000000000000000 0.00000000000000000 -1.00000000000000000 0.00000000000000000 0.00000000000000000 -0.00000000000000000 -1.00000000000000000 
1 65.70000000000000284 65.43009200000000192 0.00000000000000000 0.00000000000000000 1.00000000000000000 0.00000000000000000 1.00000000000000000 0.00000000000000000 0.00000000000000000 0.00000000000000000 0.00000000000000000 -1.00000000000000000 
Triangulations 0

TShapes 131
Ve
0.000000100000007
-14.739999999999995 -12.398834000000008 3.000000000000000
0 0

0101101
*
Ve
0.000000100000007
-12.739999999999995 -12.398834000000008 3.000000000000000
0 0

0101101
*
Ed
 0.000000100000000 1 1 0
1  1 0 0.000000000000000 2.000000000000000
2  1 2 7 0.000000000000000 2.000000000000000
2  2 2 9 0.000000000000000 2.000000000000000
2  3 3 7 0.000000000000000 2.000000000000000
2  4 3 11 0.000000000000000 2.000000000000000
2  5 4 7 0.000000000000000 2.000000000000000
2  6 4 13 0.000000000000000 2.000000000000000
2  7 5 7 0.000000000000000 2.000000000000000
2  8 5 14 0.000000000000000 2.000000000000000
0

0101000
+131 14 -130 14 *
Ve
0.000000100000000
-44.739999999999995 -12.398834000000008 0.000000000000000
0 0

0101101
*
Ed
 0.000000100000000 1 1 0
1  2 0 0.000000000000000 2.000000000000000
0

0101000
+128 0 -128 15 *
Ed
 0.000000100000000 1 1 0
1  3 0 0.000000000000000 33.000000000000000
0

0101000
+131 16 -128 0 *
Ed
 0.000000100000000 1 1 0
1  3 0 0.000000000000000 33.000000000000000
0

0101000
+130 18 -128 0 *
Wi

0101100
+129 6 -127 2 -126 2 +125 17 *
Fa
0  0.000000100000000 1 2

0101000
+124 0 *
Ve
0.000000100000000
-11.739999999999995 -12.398834000000008 0.000000000000000
0 0

0101101
*
Ed
 0.000000100000000 1 1 0
1  4 0 0.000000000000000 1.570796326794897
2  9 5 0 0.000000000000000 1.570796326794897
2  10 6 0 0.000000000000000 1.570796326794897
0

0101000
+122 0 -131 0 *
Ve
0.000000100000000
-11.739999999999995 -12.398834000000008 2.000000000000000
0 0

0101101
*
Ed
 0.000000100000000 1 1 0
1  5 0 0.000000000000000 1.570796326794897
2  11 5 0 0.000000000000000 1.570796326794897
2  12 7 0 0.000000000000000 1.570796326794897
0

0101000
+120 0 -130 0 *
Ed
 0.000000100000000 1 1 0
1  1 0 0.000000000000000 2.000000000000000
2  1 2 7 0.000000000000000 2.000000000000000
2  2 2 9 0.000000000000000 2.000000000000000
2  3 3 7 0.000000000000000 2.000000000000000
2  4 3 11 0.000000000000000 2.000000000000000
2  5 4 7 0.000000000000000 2.000000000000000
2  6 4 13 0.000000000000000 2.000000000000000
2  7 5 7 0.000000000000000 2.000000000000000
2  8 5 14 0.000000000000000 2.000000000000000
0

0101000
+122 7 -120 7 *
Wi

0101100
+121 0 -119 0 -118 19 +129 6 *
Fa
0  0.000000100000000 5 0

0101000
+117 0 *
Ve
0.000000100000000
-44.739999999999995 65.430092000000002 0.000000000000000
0 0

0101101
*
Ed
 0.000000100000000 1 1 0
1  6 0 0.000000000000000 2.000000000000000
0

0101000
+115 0 -115 15 *
Ed
 0.000000100000000 1 1 0
1  7 0 0.000000000000000 77.828926000000010
0

0101000
+128 0 -115 0 *
Wi

0101100
+127 0 -114 0 -113 0 +113 15 *
Fa
0  0.000000100000000 8 0

0101000
+112 0 *
Ve
0.000000100000007
-14.739999999999995 65.430092000000002 3.000000000000000
0 0

0101101
*
Ed
 0.000000100000007 1 1 0
1  8 0 0.000000000000000 77.828926000000010
2  13 10 23 0.000000000000000 77.828926000000010
2  14 10 24 0.000000000000000 77.828926000000010
2  15 11 26 0.000000000000000 77.828926000000010
2  16 11 27 0.000000000000000 77.828926000000010
2  17 12 23 0.000000000000000 77.828926000000010
2  18 12 28 0.000000000000000 77.828926000000010
2  19 13 26 0.000000000000000 77.828926000000010
2  20 13 29 0.000000000000000 77.828926000000010
2  21 14 23 0.000000000000000 77.828926000000010
2  22 14 30 0.000000000000000 77.828926000000010
2  23 15 26 0.000000000000000 77.828926000000010
2  24 15 31 0.000000000000000 77.828926000000010
2  25 6 23 0.000000000000000 77.828926000000010
2  26 6 32 0.000000000000000 77.828926000000010
2  27 7 26 0.000000000000000 77.828926000000010
2  28 7 33 0.000000000000000 77.828926000000010
0

0101000
+131 32 -110 32 *
Ed
 0.000000100000000 1 1 0
1  9 0 0.000000000000000 33.000000000000000
0

0101000
+115 0 -110 16 *
Wi

0101100
-109 22 +126 2 +113 2 +108 2 *
Fa
0  0.000000100000000 9 2

0101000
+107 0 *
Ve
0.000000100000007
-12.739999999999995 65.430092000000002 3.000000000000000
0 0

0101101
*
Ed
 0.000000100000007 1 1 0
1  8 0 0.000000000000000 77.828926000000010
2  13 10 23 0.000000000000000 77.828926000000010
2  14 10 24 0.000000000000000 77.828926000000010
2  15 11 26 0.000000000000000 77.828926000000010
2  16 11 27 0.000000000000000 77.828926000000010
2  17 12 23 0.000000000000000 77.828926000000010
2  18 12 28 0.000000000000000 77.828926000000010
2  19 13 26 0.000000000000000 77.828926000000010
2  20 13 29 0.000000000000000 77.828926000000010
2  21 14 23 0.000000000000000 77.828926000000010
2  22 14 30 0.000000000000000 77.828926000000010
2  23 15 26 0.000000000000000 77.828926000000010
2  24 15 31 0.000000000000000 77.828926000000010
2  25 6 23 0.000000000000000 77.828926000000010
2  26 6 32 0.000000000000000 77.828926000000010
2  27 7 26 0.000000000000000 77.828926000000010
2  28 7 33 0.000000000000000 77.828926000000010
0

0101000
+130 33 -105 33 *
Ed
 0.000000100000000 1 1 0
1  9 0 0.000000000000000 33.000000000000000
0

0101000
+115 0 -105 18 *
Wi

0101100
-104 34 +125 17 +113 17 +103 17 *
Fa
0  0.000000100000000 9 17

0101000
+102 0 *
Ve
0.000000100000000
-11.739999999999995 65.430092000000002 0.000000000000000
0 0

0101101
*
Ed
 0.000000100000000 1 1 0
1  10 0 0.000000000000000 1.570796326794897
2  29 16 0 0.000000000000000 1.570796326794897
2  30 6 0 0.000000000000000 1.570796326794897
0

0101000
+100 0 -110 0 *
Ed
 0.000000100000000 1 1 0
1  8 0 0.000000000000000 77.828926000000010
2  13 10 23 0.000000000000000 77.828926000000010
2  14 10 24 0.000000000000000 77.828926000000010
2  15 11 26 0.000000000000000 77.828926000000010
2  16 11 27 0.000000000000000 77.828926000000010
2  17 12 23 0.000000000000000 77.828926000000010
2  18 12 28 0.000000000000000 77.828926000000010
2  19 13 26 0.000000000000000 77.828926000000010
2  20 13 29 0.000000000000000 77.828926000000010
2  21 14 23 0.000000000000000 77.828926000000010
2  22 14 30 0.000000000000000 77.828926000000010
2  23 15 26 0.000000000000000 77.828926000000010
2  24 15 31 0.000000000000000 77.828926000000010
2  25 6 23 0.000000000000000 77.828926000000010
2  26 6 32 0.000000000000000 77.828926000000010
2  27 7 26 0.000000000000000 77.828926000000010
2  28 7 33 0.000000000000000 77.828926000000010
0

0101000
+122 23 -100 23 *
Wi

0101100
+121 0 -99 0 -98 35 +109 22 *
Fa
0  0.000000100000000 6 0

0101000
+97 0 *
Ve
0.000000100000000
-11.739999999999995 65.430092000000002 2.000000000000000
0 0

0101101
*
Ed
 0.000000100000000 1 1 0
1  11 0 0.000000000000000 1.570796326794897
2  31 16 0 0.000000000000000 1.570796326794897
2  32 7 0 0.000000000000000 1.570796326794897
0

0101000
+95 0 -105 0 *
Ed
 0.000000100000000 1 1 0
1  8 0 0.000000000000000 77.828926000000010
2  13 10 23 0.000000000000000 77.828926000000010
2  14 10 24 0.000000000000000 77.828926000000010
2  15 11 26 0.000000000000000 77.828926000000010
2  16 11 27 0.000000000000000 77.828926000000010
2  17 12 23 0.000000000000000 77.828926000000010
2  18 12 28 0.000000000000000 77.828926000000010
2  19 13 26 0.000000000000000 77.828926000000010
2  20 13 29 0.000000000000000 77.828926000000010
2  21 14 23 0.000000000000000 77.828926000000010
2  22 14 30 0.000000000000000 77.828926000000010
2  23 15 26 0.000000000000000 77.828926000000010
2  24 15 31 0.000000000000000 77.828926000000010
2  25 6 23 0.000000000000000 77.828926000000010
2  26 6 32 0.000000000000000 77.828926000000010
2  27 7 26 0.000000000000000 77.828926000000010
2  28 7 33 0.000000000000000 77.828926000000010
0

0101000
+120 26 -95 26 *
Wi

0101100
+119 0 -94 0 -93 36 +104 34 *
Fa
0  0.000000100000000 7 0

0101000
+92 0 *
Ve
0.000000100000000
65.700000000000003 -12.398834000000008 0.000000000000000
0 0

0101101
*
Ve
0.000000100000000
65.700000000000003 -12.398834000000008 2.000000000000000
0 0

0101101
*
Ed
 0.000000100000000 1 1 0
1  12 0 0.000000000000000 2.000000000000000
2  33 18 37 0.000000000000000 2.000000000000000
2  34 18 39 0.000000000000000 2.000000000000000
0

0101000
+90 37 -89 37 *
Ed
 0.000000100000000 1 1 0
1  13 0 0.000000000000000 77.439999999999998
0

0101000
+90 40 -122 23 *
Ed
 0.000000100000000 1 1 0
1  13 0 0.000000000000000 77.439999999999998
0

0101000
+89 41 -120 26 *
Wi

0101100
+88 19 -118 19 -87 35 +86 36 *
Fa
0  0.000000100000000 17 19

0101000
+85 0 *
Ed
 0.000000100000000 1 1 0
1  14 0 0.000000000000000 2.000000000000000
2  35 20 7 0.000000000000000 2.000000000000000
2  36 20 9 0.000000000000000 2.000000000000000
2  37 21 7 0.000000000000000 2.000000000000000
2  38 21 11 0.000000000000000 2.000000000000000
2  39 22 7 0.000000000000000 2.000000000000000
2  40 22 13 0.000000000000000 2.000000000000000
2  41 16 7 0.000000000000000 2.000000000000000
2  42 16 14 0.000000000000000 2.000000000000000
0

0101000
+110 14 -105 14 *
Wi

0101100
+114 2 -83 6 -108 2 +103 17 *
Fa
0  0.000000100000000 19 2

0101000
+82 0 *
Ed
 0.000000100000000 1 1 0
1  14 0 0.000000000000000 2.000000000000000
2  35 20 7 0.000000000000000 2.000000000000000
2  36 20 9 0.000000000000000 2.000000000000000
2  37 21 7 0.000000000000000 2.000000000000000
2  38 21 11 0.000000000000000 2.000000000000000
2  39 22 7 0.000000000000000 2.000000000000000
2  40 22 13 0.000000000000000 2.000000000000000
2  41 16 7 0.000000000000000 2.000000000000000
2  42 16 14 0.000000000000000 2.000000000000000
0

0101000
+100 7 -95 7 *
Wi

0101100
+99 0 -94 0 -80 19 +83 6 *
Fa
0  0.000000100000000 16 0

0101000
+79 0 *
Ve
0.000000100000000
65.700000000000003 65.430092000000002 0.000000000000000
0 0

0101101
*
Ed
 0.000000100000000 1 1 0
1  15 0 0.000000000000000 77.439999999999998
0

0101000
+100 23 -77 40 *
Ed
 0.000000100000000 1 1 0
1  16 0 0.000000000000000 77.828926000000010
2  43 24 40 0.000000000000000 77.828926000000010
2  44 24 43 0.000000000000000 77.828926000000010
2  45 25 41 0.000000000000000 77.828926000000010
2  46 25 44 0.000000000000000 77.828926000000010
0

0101000
+77 40 -90 40 *
Wi

0101100
+76 35 +75 35 +87 35 +98 35 *
Ve
0.000000100000000
20.305990000000001 3.084365000000002 0.000000000000000
0 0

0101101
*
Ve
0.000000100000000
33.351152999999996 3.084365000000002 0.000000000000000
0 0

0101101
*
Ed
 0.000000100000000 1 1 0
1  17 0 0.000000000000000 13.045162999999995
0

0101000
+73 0 -72 0 *
Ve
0.000000100000000
33.351152999999996 22.652114999999995 0.000000000000000
0 0

0101101
*
Ed
 0.000000100000000 1 1 0
1  18 0 0.000000000000000 19.567749999999993
0

0101000
+72 0 -70 0 *
Ve
0.000000100000000
20.305990000000001 22.652114999999995 0.000000000000000
0 0

0101101
*
Ed
 0.000000100000000 1 1 0
1  19 0 0.000000000000000 13.045162999999995
0

0101000
+70 0 -68 0 *
Ed
 0.000000100000000 1 1 0
1  20 0 0.000000000000000 19.567749999999993
0

0101000
+68 0 -73 0 *
Wi

0101100
+71 35 +69 35 +67 35 +66 35 *
Fa
0  0.000000100000000 23 42

0101000
+74 0 +65 0 *
Ve
0.000000100000000
65.700000000000003 65.430092000000002 2.000000000000000
0 0

0101101
*
Ed
 0.000000100000000 1 1 0
1  15 0 0.000000000000000 77.439999999999998
0

0101000
+95 26 -63 41 *
Ed
 0.000000100000000 1 1 0
1  16 0 0.000000000000000 77.828926000000010
2  43 24 40 0.000000000000000 77.828926000000010
2  44 24 43 0.000000000000000 77.828926000000010
2  45 25 41 0.000000000000000 77.828926000000010
2  46 25 44 0.000000000000000 77.828926000000010
0

0101000
+63 41 -89 41 *
Wi

0101100
+62 36 +61 36 +86 36 +93 36 *
Wi

0101100
+71 36 +69 36 +67 36 +66 36 *
Fa
0  0.000000100000000 23 45

0101000
+60 0 +59 0 *
Ve
0.000000100000007
68.700000000000003 -12.398834000000008 3.000000000000000
0 0

0101101
*
Ed
 0.000000100000000 1 1 0
1  21 0 0.000000000000000 1.570796326794897
2  47 18 0 0.000000000000000 1.570796326794897
2  48 24 0 0.000000000000000 1.570796326794897
0

0101000
+90 0 -57 0 *
Ve
0.000000100000007
66.700000000000003 -12.398834000000008 3.000000000000000
0 0

0101101
*
Ed
 0.000000100000000 1 1 0
1  22 0 0.000000000000000 1.570796326794897
2  49 18 0 0.000000000000000 1.570796326794897
2  50 25 0 0.000000000000000 1.570796326794897
0

0101000
+89 0 -55 0 *
Ed
 0.000000100000000 1 1 0
1  12 0 0.000000000000000 2.000000000000000
2  33 18 37 0.000000000000000 2.000000000000000
2  34 18 39 0.000000000000000 2.000000000000000
0

0101000
+57 39 -55 39 *
Wi

0101100
+56 0 -54 0 -88 3 +53 46 *
Fa
0  0.000000100000000 18 0

0101000
+52 0 *
Ed
 0.000000100000000 1 1 0
1  23 0 0.000000000000000 2.000000000000000
2  51 27 37 0.000000000000000 2.000000000000000
2  52 27 39 0.000000000000000 2.000000000000000
0

0101000
+77 37 -63 37 *
Wi

0101100
+80 19 -50 19 -76 35 +62 36 *
Fa
0  0.000000100000000 26 19

0101000
+49 0 *
Ve
0.000000100000007
68.700000000000003 65.430092000000002 3.000000000000000
0 0

0101101
*
Ed
 0.000000100000000 1 1 0
1  24 0 0.000000000000000 1.570796326794897
2  53 27 0 0.000000000000000 1.570796326794897
2  54 24 0 0.000000000000000 1.570796326794897
0

0101000
+77 0 -47 0 *
Ed
 0.000000100000007 1 1 0
1  16 0 0.000000000000000 77.828926000000010
2  43 24 40 0.000000000000000 77.828926000000010
2  44 24 43 0.000000000000000 77.828926000000010
2  45 25 41 0.000000000000000 77.828926000000010
2  46 25 44 0.000000000000000 77.828926000000010
0

0101000
+47 43 -57 43 *
Wi

0101100
+46 0 -56 0 -75 47 +45 48 *
Fa
0  0.000000100000000 24 0

0101000
+44 0 *
Ed
 0.000000100000000 1 1 0
1  25 0 0.000000000000000 2.000000000000000
0

0101000
+73 49 -73 50 *
Ed
 0.000000100000000 1 1 0
1  26 0 0.000000000000000 2.000000000000000
0

0101000
+72 49 -72 50 *
Wi

0101100
+42 0 -41 0 -71 49 +71 50 *
Fa
0  0.000000100000000 28 0

0101000
+40 0 *
Ed
 0.000000100000000 1 1 0
1  27 0 0.000000000000000 2.000000000000000
0

0101000
+70 49 -70 50 *
Wi

0101100
+41 0 -38 0 -69 49 +69 50 *
Fa
0  0.000000100000000 29 0

0101000
+37 0 *
Ed
 0.000000100000000 1 1 0
1  28 0 0.000000000000000 2.000000000000000
0

0101000
+68 49 -68 50 *
Wi

0101100
+38 0 -35 0 -67 49 +67 50 *
Fa
0  0.000000100000000 30 0

0101000
+34 0 *
Wi

0101100
+35 0 -42 0 -66 49 +66 50 *
Fa
0  0.000000100000000 31 0

0101000
+32 0 *
Ve
0.000000100000007
66.700000000000003 65.430092000000002 3.000000000000000
0 0

0101101
*
Ed
 0.000000100000000 1 1 0
1  29 0 0.000000000000000 1.570796326794897
2  55 27 0 0.000000000000000 1.570796326794897
2  56 25 0 0.000000000000000 1.570796326794897
0

0101000
+63 0 -30 0 *
Ed
 0.000000100000007 1 1 0
1  16 0 0.000000000000000 77.828926000000010
2  43 24 40 0.000000000000000 77.828926000000010
2  44 24 43 0.000000000000000 77.828926000000010
2  45 25 41 0.000000000000000 77.828926000000010
2  46 25 44 0.000000000000000 77.828926000000010
0

0101000
+30 44 -55 44 *
Wi

0101100
+29 0 -54 0 -61 51 +28 52 *
Fa
0  0.000000100000000 25 0

0101000
+27 0 *
Ve
0.000000100000000
75.700000000000003 -12.398834000000008 0.000000000000000
0 0

0101101
*
Ed
 0.000000100000000 1 1 0
1  30 0 0.000000000000000 2.000000000000000
0

0101000
+25 0 -25 54 *
Ed
 0.000000100000000 1 1 0
1  31 0 0.000000000000000 10.000000000000000
0

0101000
+25 0 -57 55 *
Ed
 0.000000100000000 1 1 0
1  31 0 0.000000000000000 10.000000000000000
0

0101000
+25 0 -55 57 *
Wi

0101100
+24 53 -53 46 -23 53 +22 56 *
Fa
0  0.000000100000000 32 53

0111000
+21 0 *
Ed
 0.000000100000000 1 1 0
1  23 0 0.000000000000000 2.000000000000000
2  51 27 37 0.000000000000000 2.000000000000000
2  52 27 39 0.000000000000000 2.000000000000000
0

0101000
+47 39 -30 39 *
Wi

0101100
+46 0 -29 0 -50 3 +19 46 *
Fa
0  0.000000100000000 27 0

0101000
+18 0 *
Ve
0.000000100000000
75.700000000000003 65.430092000000002 0.000000000000000
0 0

0101101
*
Ed
 0.000000100000000 1 1 0
1  32 0 0.000000000000000 10.000000000000000
0

0101000
+47 55 -16 0 *
Ed
 0.000000100000000 1 1 0
1  33 0 0.000000000000000 77.828926000000010
0

0101000
+16 0 -25 0 *
Wi

0101100
-45 48 +15 53 +14 53 +23 53 *
Fa
0  0.000000100000000 33 53

0101000
+13 0 *
Ed
 0.000000100000000 1 1 0
1  32 0 0.000000000000000 10.000000000000000
0

0101000
+30 57 -16 0 *
Wi

0101100
-28 52 +11 56 +14 56 +22 56 *
Fa
0  0.000000100000000 33 56

0101000
+10 0 *
Ed
 0.000000100000000 1 1 0
1  34 0 0.000000000000000 2.000000000000000
0

0101000
+16 0 -16 54 *
Wi

0101100
+8 0 -24 0 -14 0 +14 54 *
Fa
0  0.000000100000000 34 0

0101000
+7 0 *
Wi

0101100
+19 46 -8 53 -15 53 +11 56 *
Fa
0  0.000000100000000 35 53

0111000
+5 0 *
Sh

0101100
+123 0 -116 0 +111 2 +106 0 -101 0 +96 0 -91 0 +84 0 +81 0 +78 0 
+64 0 -58 0 +51 4 +48 0 +43 4 +39 19 +36 19 +33 19 +31 19 -26 4 
+20 4 -17 4 +12 4 -9 4 +6 58 +4 4 *
So

0100000
+3 0 *
Co

1100000
+2 0 *

+1 1 